<svg width="827" height="604" viewBox="0 0 827 604" fill="none" xmlns="http://www.w3.org/2000/svg">
<g clip-path="url(#clip0_456_616)">
<path opacity="0.1" d="M580.518 78.9648C584.264 83.5141 585.706 89.9103 587.319 95.9235C600.306 144.385 632.309 183.364 668.755 211.207C684.189 223.001 702.98 238.817 699.603 259.962C697.785 271.318 689.808 279.678 683.882 288.927C671.448 308.294 667.416 334.618 673.342 357.801C680.081 384.18 698.92 408.794 693.089 435.467C689.494 451.885 677.286 463.569 665.549 473.612C647.24 489.268 628.347 503.935 608.871 517.613C595.815 526.78 581.926 535.7 566.71 536.863C553.313 537.889 540.189 532.793 527.469 527.765C516.355 523.366 504.96 518.789 495.985 509.978C490.127 504.225 485.459 496.802 478.952 492.096C463.668 481.041 444.037 488.046 426.511 492.78C385.157 503.89 340.898 499.833 301.547 481.328C241.184 452.938 195.176 393.32 136.132 361.331C110.746 347.574 83.1309 339.037 59.6241 321.319C46.3809 311.231 34.9999 298.905 25.9943 284.898C8.22247 257.459 -1.388 222.474 1.38715 188.228C4.16229 153.983 19.7127 120.982 44.1354 101.649C70.2805 80.9556 103.302 77.0904 133.049 64.6673C163.754 51.82 191.081 29.7511 221.492 15.994C246.115 4.87987 272.912 -0.57492 299.917 0.0299882C326.921 0.634897 353.448 7.28415 377.549 19.4897C410.667 36.25 444.221 75.3528 481.105 78.3218C507.38 80.3741 559.998 54.0501 580.518 78.9648Z" fill="#FF5950"/>
<path d="M106.604 237.435C106.604 237.435 116.556 203.607 104.738 178.713C99.7114 168.301 98.1956 156.539 100.418 145.192C101.516 139.813 103.103 134.547 105.162 129.458" stroke="#535461" stroke-width="2" stroke-miterlimit="10"/>
<path d="M97.7728 113.731C97.7728 117.876 105.292 129.896 105.292 129.896C105.292 129.896 112.811 117.876 112.811 113.731C112.887 112.698 112.75 111.662 112.407 110.685C112.065 109.708 111.525 108.813 110.822 108.054C110.118 107.296 109.265 106.691 108.317 106.277C107.369 105.864 106.346 105.65 105.312 105.65C104.278 105.65 103.255 105.864 102.307 106.277C101.359 106.691 100.507 107.296 99.8028 108.054C99.0991 108.813 98.5592 109.708 98.217 110.685C97.8748 111.662 97.7375 112.698 97.8138 113.731H97.7728Z" fill="#FF5950"/>
<path d="M85.4076 136.689C87.6564 140.171 100.507 146.184 100.507 146.184C100.507 146.184 100.274 132.016 98.0256 128.534C96.8818 127.012 95.2039 125.981 93.3302 125.648C91.4566 125.316 89.5266 125.706 87.9295 126.742C86.3323 127.777 85.1868 129.38 84.7238 131.227C84.2609 133.074 84.515 135.029 85.4349 136.696L85.4076 136.689Z" fill="#FF5950"/>
<path d="M85.9474 175.935C89.6453 177.803 103.719 176.51 103.719 176.51C103.719 176.51 96.3712 164.395 92.6733 162.527C90.92 161.799 88.9562 161.761 87.1763 162.421C85.3963 163.082 83.9318 164.392 83.077 166.088C82.2221 167.785 82.0401 169.742 82.5674 171.567C83.0947 173.392 84.2924 174.95 85.92 175.928L85.9474 175.935Z" fill="#FF5950"/>
<path d="M93.0357 205.563C96.3645 208.026 110.486 209.141 110.486 209.141C110.486 209.141 105.291 195.959 101.956 193.489C100.351 192.513 98.4385 192.173 96.5957 192.537C94.7529 192.901 93.1129 193.942 91.9986 195.456C90.8842 196.969 90.3762 198.845 90.5745 200.714C90.7728 202.584 91.663 204.311 93.0699 205.556L93.0357 205.563Z" fill="#FF5950"/>
<path d="M116.228 146.984C113.254 149.871 99.4129 152.868 99.4129 152.868C99.4129 152.868 102.831 139.111 105.777 136.217C106.464 135.446 107.303 134.824 108.241 134.392C109.179 133.959 110.195 133.725 111.228 133.703C112.26 133.681 113.286 133.872 114.241 134.264C115.197 134.657 116.061 135.242 116.781 135.983C117.5 136.724 118.059 137.606 118.423 138.573C118.787 139.54 118.949 140.572 118.897 141.604C118.845 142.636 118.581 143.647 118.122 144.572C117.663 145.498 117.018 146.319 116.228 146.984Z" fill="#FF5950"/>
<path d="M124.082 181.709C120.384 183.577 106.31 182.284 106.31 182.284C106.31 182.284 113.658 170.168 117.356 168.301C119.109 167.572 121.073 167.535 122.853 168.195C124.633 168.856 126.097 170.166 126.952 171.862C127.807 173.559 127.989 175.516 127.462 177.341C126.935 179.166 125.737 180.724 124.109 181.702L124.082 181.709Z" fill="#FF5950"/>
<path d="M127.089 216.509C123.76 218.972 109.639 220.087 109.639 220.087C109.639 220.087 114.834 206.904 118.169 204.435C118.951 203.743 119.868 203.221 120.862 202.903C121.857 202.585 122.906 202.478 123.944 202.588C124.982 202.698 125.986 203.024 126.891 203.544C127.797 204.063 128.584 204.766 129.203 205.607C129.823 206.448 130.26 207.409 130.488 208.428C130.716 209.447 130.729 210.503 130.527 211.528C130.325 212.553 129.912 213.524 129.314 214.381C128.716 215.237 127.947 215.96 127.055 216.502L127.089 216.509Z" fill="#FF5950"/>
<path opacity="0.1" d="M97.7728 113.731C97.7728 117.876 105.292 129.896 105.292 129.896C105.292 129.896 112.811 117.876 112.811 113.731C112.887 112.698 112.75 111.662 112.407 110.685C112.065 109.708 111.525 108.813 110.822 108.054C110.118 107.296 109.265 106.691 108.317 106.277C107.369 105.864 106.346 105.65 105.312 105.65C104.278 105.65 103.255 105.864 102.307 106.277C101.359 106.691 100.507 107.296 99.8028 108.054C99.0991 108.813 98.5592 109.708 98.217 110.685C97.8748 111.662 97.7375 112.698 97.8138 113.731H97.7728Z" fill="#FF5950"/>
<path opacity="0.1" d="M85.4076 136.689C87.6564 140.171 100.507 146.184 100.507 146.184C100.507 146.184 100.274 132.016 98.0256 128.534C96.8818 127.012 95.2039 125.981 93.3302 125.648C91.4566 125.316 89.5266 125.706 87.9295 126.742C86.3323 127.777 85.1868 129.38 84.7238 131.227C84.2609 133.074 84.515 135.029 85.4349 136.696L85.4076 136.689Z" fill="#FF5950"/>
<path opacity="0.1" d="M85.9474 175.935C89.6453 177.803 103.719 176.51 103.719 176.51C103.719 176.51 96.3712 164.395 92.6733 162.527C90.92 161.799 88.9562 161.761 87.1763 162.421C85.3963 163.082 83.9318 164.392 83.077 166.088C82.2221 167.785 82.0401 169.742 82.5674 171.567C83.0947 173.392 84.2924 174.95 85.92 175.928L85.9474 175.935Z" fill="#FF5950"/>
<path opacity="0.1" d="M93.0357 205.563C96.3645 208.026 110.486 209.141 110.486 209.141C110.486 209.141 105.291 195.959 101.956 193.489C100.351 192.513 98.4385 192.173 96.5957 192.537C94.7529 192.901 93.1129 193.942 91.9986 195.456C90.8842 196.969 90.3762 198.845 90.5745 200.714C90.7728 202.584 91.663 204.311 93.0699 205.556L93.0357 205.563Z" fill="#FF5950"/>
<path opacity="0.1" d="M116.228 146.984C113.254 149.871 99.4129 152.868 99.4129 152.868C99.4129 152.868 102.831 139.111 105.777 136.217C106.464 135.446 107.303 134.824 108.241 134.392C109.179 133.959 110.195 133.725 111.228 133.703C112.26 133.681 113.286 133.872 114.241 134.264C115.197 134.657 116.061 135.242 116.781 135.983C117.5 136.724 118.059 137.606 118.423 138.573C118.787 139.54 118.949 140.572 118.897 141.604C118.845 142.636 118.581 143.647 118.122 144.572C117.663 145.498 117.018 146.319 116.228 146.984Z" fill="#FF5950"/>
<path opacity="0.1" d="M124.082 181.709C120.384 183.577 106.31 182.284 106.31 182.284C106.31 182.284 113.658 170.168 117.356 168.301C119.109 167.572 121.073 167.535 122.853 168.195C124.633 168.856 126.097 170.166 126.952 171.862C127.807 173.559 127.989 175.516 127.462 177.341C126.935 179.166 125.737 180.724 124.109 181.702L124.082 181.709Z" fill="#FF5950"/>
<path opacity="0.1" d="M127.089 216.509C123.76 218.972 109.639 220.087 109.639 220.087C109.639 220.087 114.834 206.904 118.169 204.435C118.951 203.743 119.868 203.221 120.862 202.903C121.857 202.585 122.906 202.478 123.944 202.588C124.982 202.698 125.986 203.024 126.891 203.544C127.797 204.063 128.584 204.766 129.203 205.607C129.823 206.448 130.26 207.409 130.488 208.428C130.716 209.447 130.729 210.503 130.527 211.528C130.325 212.553 129.912 213.524 129.314 214.381C128.716 215.237 127.947 215.96 127.055 216.502L127.089 216.509Z" fill="#FF5950"/>
<path d="M64.9085 291.479C64.9085 291.479 74.8608 257.65 63.0425 232.756C58.0161 222.345 56.5003 210.582 58.7225 199.235C59.8202 193.857 61.4081 188.59 63.4663 183.501" stroke="#535461" stroke-width="2" stroke-miterlimit="10"/>
<path d="M56.077 167.774C56.077 171.92 63.5959 183.939 63.5959 183.939C63.5959 183.939 71.1147 171.92 71.1147 167.774C71.1911 166.742 71.0538 165.705 70.7116 164.728C70.3693 163.752 69.8295 162.856 69.1257 162.098C68.422 161.339 67.5695 160.734 66.6215 160.321C65.6736 159.907 64.6506 159.694 63.6164 159.694C62.5823 159.694 61.5592 159.907 60.6113 160.321C59.6633 160.734 58.8108 161.339 58.107 162.098C57.4032 162.856 56.8634 163.752 56.5212 164.728C56.1789 165.705 56.0417 166.742 56.1181 167.774H56.077Z" fill="#FF5950"/>
<path d="M43.7118 190.732C45.9606 194.214 58.7837 200.221 58.7837 200.221C58.7837 200.221 58.5513 186.053 56.3025 182.571C55.8037 181.667 55.1243 180.875 54.3067 180.246C53.489 179.616 52.5506 179.161 51.5498 178.91C50.549 178.659 49.5073 178.616 48.4894 178.785C47.4715 178.954 46.4993 179.331 45.6333 179.893C44.7672 180.454 44.0259 181.188 43.4554 182.048C42.8849 182.909 42.4975 183.878 42.3173 184.894C42.1371 185.911 42.1679 186.954 42.4078 187.958C42.6477 188.963 43.0916 189.907 43.7118 190.732Z" fill="#FF5950"/>
<path d="M44.252 229.979C47.9499 231.846 62.0239 230.553 62.0239 230.553C62.0239 230.553 54.676 218.438 50.978 216.57C50.0916 216.038 49.1048 215.694 48.0795 215.56C47.0542 215.426 46.0124 215.506 45.0191 215.793C44.0258 216.08 43.1024 216.57 42.3066 217.231C41.5109 217.891 40.8599 218.709 40.3943 219.633C39.9287 220.557 39.6585 221.567 39.6006 222.601C39.5427 223.634 39.6984 224.668 40.0579 225.638C40.4173 226.608 40.9729 227.494 41.6898 228.24C42.4068 228.985 43.2698 229.575 44.2247 229.972L44.252 229.979Z" fill="#FF5950"/>
<path d="M51.3404 259.607C54.6692 262.07 68.791 263.185 68.791 263.185C68.791 263.185 63.5962 250.002 60.2605 247.533C58.6553 246.556 56.7431 246.217 54.9003 246.581C53.0575 246.945 51.4176 247.986 50.3032 249.499C49.1889 251.012 48.6809 252.888 48.8792 254.758C49.0774 256.627 49.9676 258.354 51.3746 259.6L51.3404 259.607Z" fill="#FF5950"/>
<path d="M74.5323 201.028C71.5589 203.915 57.7174 206.911 57.7174 206.911C57.7174 206.911 61.1351 193.154 64.0811 190.26C65.5359 189.035 67.4004 188.407 69.2991 188.503C71.1979 188.598 72.99 189.41 74.3147 190.775C75.6394 192.14 76.3984 193.956 76.4387 195.859C76.4791 197.761 75.7979 199.608 74.5323 201.028Z" fill="#FF5950"/>
<path d="M82.3861 235.752C78.6882 237.62 64.6143 236.327 64.6143 236.327C64.6143 236.327 71.9623 224.212 75.6602 222.344C77.4135 221.616 79.3773 221.578 81.1572 222.238C82.9372 222.899 84.4017 224.209 85.2565 225.905C86.1114 227.602 86.2934 229.559 85.7661 231.384C85.2388 233.21 84.0411 234.768 82.4135 235.746L82.3861 235.752Z" fill="#FF5950"/>
<path d="M85.394 270.552C82.0651 273.015 67.9433 274.13 67.9433 274.13C67.9433 274.13 73.1382 260.948 76.4738 258.478C77.2557 257.786 78.1729 257.264 79.1672 256.946C80.1615 256.629 81.211 256.521 82.2489 256.632C83.2869 256.742 84.2905 257.067 85.196 257.587C86.1014 258.107 86.8888 258.809 87.508 259.65C88.1272 260.491 88.5648 261.452 88.7927 262.471C89.0206 263.491 89.0339 264.547 88.8319 265.572C88.6298 266.596 88.2167 267.568 87.6189 268.424C87.0212 269.281 86.2518 270.003 85.3598 270.545L85.394 270.552Z" fill="#FF5950"/>
<path opacity="0.1" d="M56.077 167.774C56.077 171.92 63.5959 183.939 63.5959 183.939C63.5959 183.939 71.1147 171.92 71.1147 167.774C71.1911 166.742 71.0538 165.705 70.7116 164.728C70.3693 163.752 69.8295 162.856 69.1257 162.098C68.422 161.339 67.5695 160.734 66.6215 160.321C65.6736 159.907 64.6506 159.694 63.6164 159.694C62.5823 159.694 61.5592 159.907 60.6113 160.321C59.6633 160.734 58.8108 161.339 58.107 162.098C57.4032 162.856 56.8634 163.752 56.5212 164.728C56.1789 165.705 56.0417 166.742 56.1181 167.774H56.077Z" fill="#FF5950"/>
<path opacity="0.1" d="M43.7118 190.732C45.9606 194.214 58.7837 200.221 58.7837 200.221C58.7837 200.221 58.5513 186.053 56.3025 182.571C55.8037 181.667 55.1243 180.875 54.3067 180.246C53.489 179.616 52.5506 179.161 51.5498 178.91C50.549 178.659 49.5073 178.616 48.4894 178.785C47.4715 178.954 46.4993 179.331 45.6333 179.893C44.7672 180.454 44.0259 181.188 43.4554 182.048C42.8849 182.909 42.4975 183.878 42.3173 184.894C42.1371 185.911 42.1679 186.954 42.4078 187.958C42.6477 188.963 43.0916 189.907 43.7118 190.732Z" fill="#FF5950"/>
<path opacity="0.1" d="M44.252 229.979C47.9499 231.846 62.0239 230.553 62.0239 230.553C62.0239 230.553 54.676 218.438 50.978 216.57C50.0916 216.038 49.1048 215.694 48.0795 215.56C47.0542 215.426 46.0124 215.506 45.0191 215.793C44.0258 216.08 43.1024 216.57 42.3066 217.231C41.5109 217.891 40.8599 218.709 40.3943 219.633C39.9287 220.557 39.6585 221.567 39.6006 222.601C39.5427 223.634 39.6984 224.668 40.0579 225.638C40.4173 226.608 40.9729 227.494 41.6898 228.24C42.4068 228.985 43.2698 229.575 44.2247 229.972L44.252 229.979Z" fill="#FF5950"/>
<path opacity="0.1" d="M51.3404 259.607C54.6692 262.07 68.791 263.185 68.791 263.185C68.791 263.185 63.5962 250.002 60.2605 247.533C58.6553 246.556 56.7431 246.217 54.9003 246.581C53.0575 246.945 51.4176 247.986 50.3032 249.499C49.1889 251.012 48.6809 252.888 48.8792 254.758C49.0774 256.627 49.9676 258.354 51.3746 259.6L51.3404 259.607Z" fill="#FF5950"/>
<path opacity="0.1" d="M74.5323 201.028C71.5589 203.915 57.7174 206.911 57.7174 206.911C57.7174 206.911 61.1351 193.154 64.0811 190.26C65.5359 189.035 67.4004 188.407 69.2991 188.503C71.1979 188.598 72.99 189.41 74.3147 190.775C75.6394 192.14 76.3984 193.956 76.4387 195.859C76.4791 197.761 75.7979 199.608 74.5323 201.028Z" fill="#FF5950"/>
<path opacity="0.1" d="M82.3861 235.752C78.6882 237.62 64.6143 236.327 64.6143 236.327C64.6143 236.327 71.9623 224.212 75.6602 222.344C77.4135 221.616 79.3773 221.578 81.1572 222.238C82.9372 222.899 84.4017 224.209 85.2565 225.905C86.1114 227.602 86.2934 229.559 85.7661 231.384C85.2388 233.21 84.0411 234.768 82.4135 235.746L82.3861 235.752Z" fill="#FF5950"/>
<path opacity="0.1" d="M85.394 270.552C82.0651 273.015 67.9433 274.13 67.9433 274.13C67.9433 274.13 73.1382 260.948 76.4738 258.478C77.2557 257.786 78.1729 257.264 79.1672 256.946C80.1615 256.629 81.211 256.521 82.2489 256.632C83.2869 256.742 84.2905 257.067 85.196 257.587C86.1014 258.107 86.8888 258.809 87.508 259.65C88.1272 260.491 88.5648 261.452 88.7927 262.471C89.0206 263.491 89.0339 264.547 88.8319 265.572C88.6298 266.596 88.2167 267.568 87.6189 268.424C87.0212 269.281 86.2518 270.003 85.3598 270.545L85.394 270.552Z" fill="#FF5950"/>
<path opacity="0.1" d="M330.931 404.58C145.271 386.46 -2.87327 347.523 0.0411867 317.614C2.95564 287.704 155.825 278.148 341.485 296.269C527.144 314.389 675.289 353.326 672.374 383.235C669.46 413.144 516.59 422.701 330.931 404.58Z" fill="#FF5950"/>
<path d="M29.2961 322.379C16.6576 296.452 19.2687 254.25 20.6153 239.925C20.9092 236.792 21.1416 234.993 21.1416 234.993C21.1416 234.993 32.2833 233.235 28.1752 219.738C26.1656 213.129 33.3016 209.476 41.0939 207.472C46.6655 206.138 52.3504 205.335 58.0729 205.071L165.996 198.401C180.795 174.895 209.913 178.672 209.913 178.672C209.913 178.672 235.887 175.969 254.302 175.689C257.096 173.225 260.16 171.084 263.434 169.306C265.385 168.133 267.462 167.185 269.627 166.481C272.258 165.721 275.031 165.588 277.723 166.093C280.415 166.598 282.951 167.727 285.129 169.388C286.191 170.153 287.055 171.159 287.651 172.323C287.881 172.853 288.053 173.406 288.164 173.972C288.442 174.938 288.67 175.917 288.848 176.907C289.008 177.383 289.238 177.832 289.531 178.241C290.269 179.287 291.541 180.074 291.705 181.34C291.709 181.413 291.709 181.486 291.705 181.559C291.84 181.8 291.93 182.064 291.971 182.338C292.021 182.902 291.899 183.467 291.623 183.96C291.582 184.042 291.534 184.117 291.486 184.192C292.395 185.509 293.136 186.934 293.694 188.434C293.947 188.571 294.191 188.724 294.425 188.892L294.63 189.043V189.46L294.746 189.549L294.999 196.287L294.856 196.397C294.649 199.54 293.701 202.59 292.09 205.296C290.479 208.002 288.251 210.288 285.587 211.966C285.498 212.397 285.416 212.835 285.334 213.294C284.959 215.503 284.789 217.743 284.828 219.984H284.945C288.157 218.616 293.653 220.627 298.376 222.974H359.566C347.632 207.609 333.031 195.692 333.031 195.692V182.188C343.462 181.668 435.096 225.724 455.186 235.451L456.074 235.882L559.322 239.084C578.023 238.968 594.374 241.718 608.536 246.199C632.203 253.639 653.471 267.237 670.164 285.602C682.358 298.997 687.703 310.066 687.703 310.066L687.587 310.996L687.703 311.235L687.539 311.379L684.757 333.352L682.843 348.471C696.145 357.077 678.913 360.524 678.913 360.524C662.508 374.603 636.117 374.021 636.117 374.021C629.671 382.826 610.908 381.649 610.908 381.649H512.418C510.884 372.599 508.83 363.646 506.266 354.833C502.062 385.131 478.173 408.342 449.341 408.342C447.203 408.341 445.066 408.211 442.943 407.953C440.821 408.211 438.684 408.341 436.546 408.342C407.379 408.342 383.278 384.584 379.484 353.779H374.665C375.565 360.662 377.128 367.441 379.334 374.021C290.809 348.204 126.071 335.883 126.071 335.883C125.387 329.384 124.635 323.104 123.822 317.078C117.035 333.94 101.648 345.714 83.7396 345.714C82.1128 345.711 80.4875 345.611 78.8729 345.413C77.2581 345.611 75.6329 345.711 74.0061 345.714C52.7413 345.714 35.0447 329.111 31.0529 307.097C30.5242 310.982 30.2229 314.895 30.1505 318.815C30.9092 322.55 31.5723 324.938 31.6612 325.273C31.1281 324.297 30.6223 323.298 30.1438 322.277C30.1438 322.673 30.1438 323.084 30.1438 323.494C30.3078 324.178 30.424 324.562 30.4582 324.691L30.1574 324.131C30.1574 324.432 30.1574 324.726 30.1574 325.027C30.2257 325.054 29.8635 324.069 29.2961 322.379Z" fill="url(#paint0_linear_456_616)"/>
<path d="M39.6243 229.219H242.565V311.153H39.6243V229.219Z" fill="#6F7D95"/>
<path d="M294.166 190.849L265.341 255.475L208.259 252.013L205.955 225.471L204.226 194.31L284.938 188.536L294.166 190.849Z" fill="#4B5C7A"/>
<path d="M294.166 190.848C294.166 190.848 283.229 180.464 269.948 178.152C256.667 175.839 212.292 180.457 212.292 180.457L205.949 191.403L207.138 196.615L294.166 190.848Z" fill="#FF4D52"/>
<path d="M185.491 224.027H390.161V284.036H185.491V224.027Z" fill="#4B5C7A"/>
<path d="M235.846 264.854C230.439 246.76 241.219 234.87 241.219 234.87L259.086 222.392C259.101 222.435 259.12 222.476 259.141 222.515C261.465 219.79 263.128 216.563 264.001 213.088C264.056 212.87 264.103 212.644 264.158 212.404C262.525 211.19 261.094 209.724 259.92 208.06C257.008 206.275 255.71 203.402 255.218 200.535C253.344 197.753 251.852 194.732 250.781 191.553C250.604 191.039 250.454 190.516 250.33 189.987C249.986 189.001 249.833 187.958 249.879 186.915C250.025 185.753 250.411 184.635 251.014 183.631C254.021 178.159 259.435 174.348 264.924 171.242C266.842 170.089 268.886 169.157 271.014 168.465C273.602 167.718 276.328 167.588 278.974 168.085C281.621 168.581 284.115 169.691 286.257 171.325C287.301 172.076 288.152 173.066 288.738 174.211C288.964 174.732 289.134 175.276 289.244 175.833C289.509 176.783 289.726 177.747 289.893 178.72C290.042 179.184 290.259 179.625 290.536 180.026C291.267 181.052 292.511 181.825 292.675 183.077C292.679 183.15 292.679 183.223 292.675 183.296C292.807 183.534 292.895 183.793 292.935 184.062C292.985 184.616 292.866 185.172 292.593 185.656C292.552 185.738 292.504 185.814 292.456 185.889C293.351 187.184 294.081 188.586 294.63 190.062C294.881 190.197 295.123 190.348 295.355 190.513L295.553 190.657V191.067L295.669 191.156L295.922 197.785L295.785 197.895C295.583 200.987 294.652 203.987 293.069 206.649C291.485 209.311 289.293 211.56 286.674 213.212C286.585 213.636 286.503 214.067 286.428 214.518C286.015 216.905 285.85 219.328 285.936 221.749C285.963 221.54 285.963 221.329 285.936 221.12C290.878 218.883 301.657 225.067 305.997 227.803C306.655 228.115 307.269 228.513 307.822 228.987L307.897 229.042C310.885 231.463 316.783 238.195 321.466 255.495C327.959 279.637 327.283 285.11 332.013 290.706C336.743 296.302 341.438 335.726 341.438 335.726L331.917 338.291L330.7 334.378C319.381 344.708 287.685 349.681 287.685 349.681L286.715 346.665C281.855 348.416 273.728 345.755 273.728 345.755C261.848 341.554 257.398 330.896 248.779 316.838C240.159 302.78 235.846 264.854 235.846 264.854ZM283.762 337.594L261.82 269.478C259.831 280.054 268.608 296.712 269.387 307.603C269.873 314.608 278.02 328.529 283.762 337.594Z" fill="url(#paint1_linear_456_616)"/>
<path d="M256.311 193.181C256.311 193.181 252.49 207.746 263.83 210.284C275.17 212.822 267.699 203.737 267.699 203.737L256.762 193.072L256.311 193.181Z" fill="#472727"/>
<path d="M303.722 227.892C303.722 227.892 312.157 231.313 318.356 254.353C324.556 277.393 323.941 282.592 328.404 287.949C332.868 293.305 337.44 330.889 337.44 330.889L328.513 333.297L320.742 308.177L299.368 241.82L303.722 227.892Z" fill="#DDE0E4"/>
<path opacity="0.05" d="M303.722 227.892C303.722 227.892 312.157 231.313 318.356 254.353C324.556 277.393 323.941 282.592 328.404 287.949C332.868 293.305 337.44 330.889 337.44 330.889L328.513 333.297L320.742 308.177L299.368 241.82L303.722 227.892Z" fill="#09093C"/>
<path d="M256.886 225.293C256.886 225.293 292.197 243.257 287.029 231.538C284.473 225.751 284.569 219.751 285.314 215.12C285.739 212.392 286.485 209.724 287.535 207.171C287.535 207.171 263.53 188.167 264.938 203.682C265.275 207.022 265.044 210.394 264.254 213.656C262.176 221.886 256.886 225.293 256.886 225.293Z" fill="#DB8B8B"/>
<path opacity="0.1" d="M264.254 213.684C266.525 215.509 269.195 216.77 272.046 217.365C274.897 217.959 277.849 217.87 280.659 217.104C282.302 216.662 283.878 215.997 285.341 215.127C285.766 212.399 286.512 209.731 287.562 207.178C287.562 207.178 263.557 188.174 264.965 203.689C265.295 207.037 265.055 210.416 264.254 213.684Z" fill="#09093C"/>
<path d="M257.725 203.134C255.071 193.269 260.91 183.119 270.767 180.463C280.623 177.806 290.765 183.65 293.419 193.515C296.073 203.38 290.234 213.53 280.377 216.186C270.521 218.842 260.379 212.998 257.725 203.134Z" fill="#DB8B8B"/>
<path opacity="0.1" d="M284.856 189.302C285.363 189.613 285.928 189.817 286.515 189.903C287.103 189.989 287.703 189.956 288.277 189.804C288.852 189.653 289.39 189.387 289.859 189.022C290.328 188.657 290.719 188.201 291.008 187.681C291.261 187.218 291.371 186.689 291.322 186.162C291.165 184.972 289.989 184.233 289.272 183.248C288.157 181.654 288.369 179.472 287.563 177.7C287.007 176.618 286.207 175.681 285.225 174.964C283.227 173.401 280.889 172.333 278.4 171.848C275.911 171.363 273.343 171.474 270.905 172.173C268.911 172.824 266.998 173.703 265.204 174.793C260.064 177.728 254.999 181.319 252.217 186.539C251.654 187.497 251.295 188.561 251.165 189.665C251.134 190.858 251.343 192.044 251.78 193.154C252.808 196.22 254.24 199.135 256.038 201.821C256.64 201.074 257.395 200.465 258.253 200.036C258.686 199.831 259.173 199.768 259.644 199.855C260.115 199.942 260.546 200.175 260.878 200.522C261.472 201.281 261.835 202.731 262.737 202.389C263.325 202.17 263.318 201.356 263.291 200.727C263.168 197.99 264.658 195.411 266.66 193.564C268.663 191.717 271.144 190.5 273.591 189.302C275.348 188.441 277.693 186.463 279.62 186.115C282.013 185.67 283.14 188.242 284.856 189.302Z" fill="#09093C"/>
<path d="M284.603 188.365C285.11 188.675 285.675 188.88 286.263 188.966C286.85 189.052 287.45 189.018 288.024 188.867C288.599 188.715 289.137 188.449 289.606 188.085C290.075 187.72 290.466 187.264 290.755 186.744C291.008 186.28 291.118 185.752 291.069 185.225C290.912 184.035 289.736 183.296 289.019 182.311C287.905 180.717 288.116 178.535 287.31 176.763C286.755 175.681 285.954 174.744 284.972 174.027C282.975 172.464 280.636 171.396 278.147 170.911C275.658 170.426 273.09 170.537 270.652 171.236C268.658 171.887 266.745 172.766 264.952 173.856C259.811 176.79 254.746 180.382 251.964 185.602C251.401 186.559 251.042 187.624 250.912 188.728C250.881 189.92 251.09 191.107 251.527 192.217C252.555 195.283 253.987 198.197 255.785 200.884C256.387 200.137 257.142 199.528 258 199.099C258.433 198.894 258.92 198.83 259.391 198.918C259.862 199.005 260.293 199.238 260.625 199.584C261.219 200.344 261.582 201.794 262.484 201.452C263.072 201.233 263.065 200.419 263.038 199.79C262.915 197.053 264.405 194.474 266.407 192.627C268.41 190.78 270.891 189.562 273.338 188.365C275.095 187.503 277.44 185.526 279.367 185.177C281.76 184.726 282.887 187.305 284.603 188.365Z" fill="#472727"/>
<path d="M274.924 227.742C274.924 227.742 260.303 224.875 259.667 222.529L242.948 234.343C242.948 234.343 232.887 245.624 238.034 262.89C238.034 262.89 242.224 299.072 250.371 312.501C258.519 325.93 263.201 343.326 274.363 347.39C274.363 347.39 285.095 340.467 288.636 340.549C288.636 340.549 270.46 314.191 269.681 303.813C268.902 293.435 260.597 277.523 262.415 267.453L287.022 344.003C287.022 344.003 326.667 337.847 330.687 324.678C330.687 324.678 327.269 319.54 327.905 314.334C328.54 309.128 312.949 269.964 312.949 269.964L305.485 229.124C305.485 229.124 290.72 218.801 284.842 221.482C284.869 221.441 285.936 226.538 274.924 227.742Z" fill="#DDE0E4"/>
<g opacity="0.1">
<path opacity="0.1" d="M269.599 195.986C273.208 191.061 280.092 195.104 281.219 195.808L282.99 195.63C284.535 193.947 289.271 189.473 293.721 192.764L293.913 192.908L294.179 199.222L293.988 199.372C292.702 200.365 291.245 201.112 289.688 201.575C288.703 201.865 287.663 201.917 286.653 201.726C285.907 201.553 285.207 201.219 284.603 200.746C284 200.273 283.507 199.673 283.161 198.989L282.238 199.051L281.554 198.921C281.418 199.648 281.127 200.338 280.703 200.945C280.279 201.551 279.73 202.06 279.094 202.437C276.038 204.168 271.575 202.437 271.39 202.403L271.158 202.314L269.517 196.205L269.599 195.986ZM271.917 201.541C272.826 201.849 276.257 202.861 278.56 201.541C279.134 201.181 279.617 200.694 279.973 200.118C280.328 199.541 280.547 198.891 280.611 198.216L280.693 197.717L282.19 198.025L283.694 197.97L283.837 198.257C284.112 198.879 284.525 199.429 285.045 199.865C285.565 200.302 286.179 200.613 286.838 200.775C289.415 201.329 292.395 199.331 293.174 198.763L292.949 193.428C289.08 190.821 284.815 195.049 283.584 196.431L283.455 196.574L280.96 196.821L280.809 196.718C280.741 196.677 274.541 192.511 271.007 195.863C270.832 196.026 270.67 196.202 270.522 196.39L271.917 201.541Z" fill="#09093C"/>
<path opacity="0.1" d="M258.403 199.16L270.023 198.196L270.98 198.011L270.549 196.397C270.697 196.209 270.859 196.032 271.035 195.87L269.627 196.007L260.119 196.937L258.403 199.16Z" fill="#09093C"/>
</g>
<path d="M269.476 195.548C273.085 190.623 279.969 194.666 281.096 195.37L282.867 195.192C284.411 193.51 289.148 189.036 293.598 192.326L293.79 192.47L294.056 198.784L293.865 198.934C292.579 199.928 291.122 200.674 289.565 201.137C288.58 201.427 287.54 201.479 286.53 201.288C285.784 201.115 285.084 200.781 284.48 200.308C283.877 199.835 283.384 199.236 283.038 198.551L282.115 198.613L281.431 198.483C281.295 199.21 281.004 199.9 280.58 200.507C280.156 201.113 279.607 201.622 278.971 201.999C275.915 203.73 271.452 201.999 271.267 201.965L271.035 201.876L269.394 195.767L269.476 195.548ZM271.793 201.103C272.703 201.411 276.134 202.423 278.437 201.103C279.011 200.743 279.494 200.256 279.85 199.68C280.205 199.103 280.424 198.453 280.488 197.778L280.57 197.279L282.067 197.587L283.55 197.491L283.694 197.778C283.963 198.403 284.373 198.958 284.891 199.399C285.409 199.84 286.021 200.157 286.681 200.323C289.258 200.877 292.238 198.88 293.017 198.312L292.792 192.976C288.923 190.37 284.658 194.597 283.427 195.979L283.297 196.123L280.802 196.369L280.652 196.267C280.584 196.225 274.384 192.059 270.85 195.411C270.675 195.574 270.513 195.75 270.365 195.938L271.793 201.103Z" fill="#472727"/>
<path d="M258.294 198.722L269.873 197.758L270.83 197.573L270.399 195.959C270.547 195.771 270.709 195.595 270.884 195.432L269.476 195.569L259.968 196.499L258.294 198.722Z" fill="#472727"/>
<path d="M337.699 270.764H540.641V352.698H337.699V270.764Z" fill="#6F7D95"/>
<path d="M447.763 406.359C416.487 406.359 391.132 378.588 391.132 344.332C391.132 310.075 416.487 282.305 447.763 282.305C479.039 282.305 504.394 310.075 504.394 344.332C504.394 378.588 479.039 406.359 447.763 406.359Z" fill="#4B5C7A"/>
<path opacity="0.05" d="M447.763 406.359C416.487 406.359 391.132 378.588 391.132 344.332C391.132 310.075 416.487 282.305 447.763 282.305C479.039 282.305 504.394 310.075 504.394 344.332C504.394 378.588 479.039 406.359 447.763 406.359Z" fill="#09093C"/>
<path d="M435.179 406.359C403.902 406.359 378.548 378.588 378.548 344.332C378.548 310.075 403.902 282.305 435.179 282.305C466.455 282.305 491.81 310.075 491.81 344.332C491.81 378.588 466.455 406.359 435.179 406.359Z" fill="#4B5C7A"/>
<path opacity="0.05" d="M436.436 369.835C422.536 369.835 411.268 358.558 411.268 344.646C411.268 330.735 422.536 319.458 436.436 319.458C450.336 319.458 461.604 330.735 461.604 344.646C461.604 358.558 450.336 369.835 436.436 369.835Z" fill="#09093C"/>
<path d="M436.436 352.206C432.265 352.206 428.883 348.821 428.883 344.647C428.883 340.472 432.265 337.087 436.436 337.087C440.608 337.087 443.989 340.472 443.989 344.647C443.989 348.821 440.608 352.206 436.436 352.206Z" stroke="#6F7D95" stroke-width="2" stroke-miterlimit="10"/>
<path d="M436.437 333.311C435.395 333.311 434.55 332.466 434.55 331.423C434.55 330.38 435.395 329.535 436.437 329.535C437.479 329.535 438.323 330.38 438.323 331.423C438.323 332.466 437.479 333.311 436.437 333.311Z" fill="#6F7D95"/>
<path d="M424.9 336.515C424.102 335.845 423.998 334.654 424.667 333.855C425.337 333.057 426.527 332.952 427.325 333.623C428.123 334.293 428.228 335.484 427.558 336.283C426.888 337.081 425.698 337.186 424.9 336.515Z" fill="#6F7D95"/>
<path d="M420.396 345.658C420.215 344.631 420.9 343.652 421.926 343.471C422.952 343.29 423.931 343.976 424.112 345.003C424.293 346.029 423.608 347.009 422.582 347.19C421.555 347.371 420.577 346.685 420.396 345.658Z" fill="#6F7D95"/>
<path d="M426.704 356.518C425.802 355.997 425.493 354.842 426.014 353.939C426.535 353.036 427.688 352.726 428.591 353.248C429.493 353.769 429.802 354.924 429.281 355.827C428.76 356.73 427.607 357.04 426.704 356.518Z" fill="#6F7D95"/>
<path d="M436.636 357.54C436.28 356.56 436.785 355.477 437.764 355.12C438.743 354.764 439.826 355.269 440.182 356.249C440.538 357.229 440.033 358.312 439.054 358.669C438.075 359.025 436.993 358.52 436.636 357.54Z" fill="#6F7D95"/>
<path d="M446.226 351.709C445.247 351.352 444.742 350.269 445.098 349.289C445.455 348.309 446.537 347.804 447.516 348.161C448.495 348.517 449 349.601 448.644 350.581C448.287 351.56 447.205 352.066 446.226 351.709Z" fill="#6F7D95"/>
<path d="M445.346 339.914C444.825 339.01 445.134 337.856 446.036 337.334C446.939 336.813 448.092 337.122 448.613 338.025C449.134 338.928 448.825 340.083 447.923 340.605C447.021 341.126 445.867 340.817 445.346 339.914Z" fill="#6F7D95"/>
<path d="M28.2643 296.397C30.1987 309.765 35.5781 324.397 35.5781 324.397C35.5417 323.485 35.5189 322.584 35.5098 321.695C35.5098 320.546 35.5098 319.41 35.5098 318.275C36.1933 281.429 56.255 258.697 69.1943 247.813C72.5573 244.945 76.1745 242.39 80.001 240.179H44.8332C44.8332 240.179 30.9984 268.452 28.1139 282.298C27.28 286.184 27.5125 291.198 28.2643 296.397Z" fill="#FF4D52"/>
<path opacity="0.05" d="M28.2643 296.397C30.1987 309.765 35.5781 324.397 35.5781 324.397C35.5417 323.485 35.5189 322.584 35.5098 321.695C35.5098 320.546 35.5098 319.41 35.5098 318.275C36.1933 281.429 56.255 258.697 69.1943 247.813C72.5573 244.945 76.1745 242.39 80.001 240.179H44.8332C44.8332 240.179 30.9984 268.452 28.1139 282.298C27.28 286.184 27.5125 291.198 28.2643 296.397Z" fill="#09093C"/>
<path d="M88.2235 344.77C64.4369 344.77 45.154 323.649 45.154 297.595C45.154 271.54 64.4369 250.419 88.2235 250.419C112.01 250.419 131.293 271.54 131.293 297.595C131.293 323.649 112.01 344.77 88.2235 344.77Z" fill="#4B5C7A"/>
<path opacity="0.05" d="M88.2235 344.77C64.4369 344.77 45.154 323.649 45.154 297.595C45.154 271.54 64.4369 250.419 88.2235 250.419C112.01 250.419 131.293 271.54 131.293 297.595C131.293 323.649 112.01 344.77 88.2235 344.77Z" fill="#09093C"/>
<path d="M78.6542 344.77C54.8676 344.77 35.5847 323.649 35.5847 297.595C35.5847 271.54 54.8676 250.419 78.6542 250.419C102.441 250.419 121.724 271.54 121.724 297.595C121.724 323.649 102.441 344.77 78.6542 344.77Z" fill="#4B5C7A"/>
<path opacity="0.05" d="M79.6111 316.989C69.0409 316.989 60.4721 308.413 60.4721 297.834C60.4721 287.255 69.0409 278.679 79.6111 278.679C90.1812 278.679 98.75 287.255 98.75 297.834C98.75 308.413 90.1812 316.989 79.6111 316.989Z" fill="#09093C"/>
<path d="M79.6113 303.58C76.4403 303.58 73.8696 301.008 73.8696 297.834C73.8696 294.66 76.4403 292.088 79.6113 292.088C82.7824 292.088 85.353 294.66 85.353 297.834C85.353 301.008 82.7824 303.58 79.6113 303.58Z" stroke="#6F7D95" stroke-width="2" stroke-miterlimit="10"/>
<path d="M79.611 289.214C78.8182 289.214 78.1756 288.571 78.1756 287.778C78.1756 286.984 78.8182 286.341 79.611 286.341C80.4037 286.341 81.0464 286.984 81.0464 287.778C81.0464 288.571 80.4037 289.214 79.611 289.214Z" fill="#6F7D95"/>
<path d="M70.8324 291.65C70.2251 291.14 70.1459 290.234 70.6555 289.626C71.165 289.018 72.0704 288.939 72.6777 289.449C73.285 289.959 73.3642 290.865 72.8547 291.473C72.3451 292.081 71.4397 292.16 70.8324 291.65Z" fill="#6F7D95"/>
<path d="M67.4123 298.609C67.2746 297.828 67.7959 297.083 68.5766 296.945C69.3574 296.807 70.1019 297.329 70.2395 298.111C70.3772 298.892 69.8559 299.637 69.0752 299.775C68.2944 299.913 67.55 299.391 67.4123 298.609Z" fill="#6F7D95"/>
<path d="M72.2033 306.867C71.5168 306.471 71.2815 305.592 71.6779 304.905C72.0743 304.218 72.9522 303.982 73.6387 304.379C74.3253 304.776 74.5605 305.654 74.1641 306.341C73.7677 307.029 72.8899 307.264 72.2033 306.867Z" fill="#6F7D95"/>
<path d="M79.7601 307.642C79.489 306.897 79.873 306.072 80.618 305.801C81.3629 305.53 82.1867 305.914 82.4578 306.66C82.7289 307.405 82.3448 308.23 81.5999 308.501C80.8549 308.772 80.0312 308.388 79.7601 307.642Z" fill="#6F7D95"/>
<path d="M87.056 303.202C86.311 302.93 85.9269 302.106 86.1981 301.36C86.4692 300.615 87.2929 300.23 88.0379 300.502C88.7828 300.773 89.1669 301.597 88.8958 302.343C88.6246 303.088 87.8009 303.473 87.056 303.202Z" fill="#6F7D95"/>
<path d="M86.3781 294.233C85.9817 293.546 86.2169 292.667 86.9035 292.27C87.59 291.874 88.4679 292.109 88.8643 292.796C89.2607 293.483 89.0255 294.362 88.3389 294.759C87.6524 295.155 86.7745 294.92 86.3781 294.233Z" fill="#6F7D95"/>
<path d="M676.986 350.68L682.194 309.71H620.505L588.796 337.983L604.36 374.336C604.36 374.336 667.157 363.952 676.986 350.68Z" fill="#FF4D52"/>
<path opacity="0.05" d="M588.776 337.983L604.34 374.336C604.34 374.336 667.157 363.952 676.986 350.68L677.211 348.895L681.996 311.01L682.044 310.633L682.16 309.717H620.471L588.776 337.983Z" fill="#09093C"/>
<path d="M333.366 183.925V197.197C333.366 197.197 365.246 223.192 372.834 247.717C374.158 251.7 374.658 255.91 374.303 260.092C371.419 287.21 457.312 238.16 457.312 238.16L453.491 236.3C433.743 226.77 343.626 183.406 333.366 183.925Z" fill="#7597CE"/>
<path d="M260.72 247.977C260.72 247.977 230.864 233.297 226.072 222.433C225.429 220.976 224.821 219.505 224.11 218.075C221.151 212.117 214.93 198.141 218.061 191.43C222.094 182.776 208.259 192.586 208.259 192.586L216.332 233.543L235.935 244.488L261.301 247.977" fill="#FF4D52"/>
<path opacity="0.05" d="M260.72 247.977C260.72 247.977 230.864 233.297 226.072 222.433C225.429 220.976 224.821 219.505 224.11 218.075C221.151 212.117 214.93 198.141 218.061 191.43C222.094 182.776 208.259 192.586 208.259 192.586L216.332 233.543L235.935 244.488L261.301 247.977" fill="#09093C"/>
<path opacity="0.05" d="M588.776 337.983L604.34 374.336C604.34 374.336 667.157 363.952 676.986 350.68L677.211 348.895C676.958 348.724 676.692 348.546 676.412 348.375C676.412 348.375 657.389 363.377 614.142 366.845C614.142 366.845 588.167 346.069 630.287 322.995C630.287 322.995 666.924 324.144 682.017 311.016L682.181 310.88L682.064 310.64C681.964 310.444 681.802 310.139 681.579 309.724H620.492L588.776 337.983Z" fill="#09093C"/>
<path opacity="0.05" d="M374.303 260.086C371.419 287.21 457.312 238.16 457.312 238.16L453.491 236.3C450.961 238.995 440.866 248.087 420.681 247.102C407.694 246.465 387.974 247.047 372.799 247.71C374.135 251.69 374.647 255.901 374.303 260.086Z" fill="#09093C"/>
<path opacity="0.05" d="M337.693 270.764V352.698H375.396C372.908 333.639 374.344 305.858 398.527 289.933C407.547 284.032 418.02 280.74 428.791 280.419C439.562 280.097 450.212 282.76 459.567 288.113C475.418 297.17 493.142 315.586 504.407 352.698H540.634V270.764H337.693Z" fill="#09093C"/>
<path opacity="0.05" d="M28.2643 296.397C29.6861 305.441 31.9691 314.225 35.5029 321.709C35.9586 322.717 36.4553 323.7 36.993 324.657C36.9041 324.322 36.2548 321.982 35.5029 318.302C31.8392 300.379 25.5712 250.782 67.5675 247.95C68.1143 247.916 68.6543 247.881 69.1943 247.861C72.5553 244.976 76.1726 242.405 80.001 240.179H44.8332C44.8332 240.179 30.9984 268.452 28.1139 282.298C27.28 286.184 27.5125 291.198 28.2643 296.397Z" fill="#09093C"/>
<path d="M35.851 324.096C35.3041 322.119 15.8234 250.809 66.4254 247.396C117.738 243.934 124.081 282.592 129.844 335.103C129.844 335.103 291.841 347.219 378.91 372.612C378.91 372.612 358.007 315.285 397.365 289.358C406.385 283.457 416.858 280.165 427.629 279.844C438.4 279.523 449.05 282.186 458.405 287.538C477.817 298.634 500.052 323.795 509.779 380.11H606.649C606.649 380.11 625.105 381.266 631.441 372.585C631.441 372.585 657.416 373.16 673.526 359.313C673.526 359.313 690.82 355.852 676.985 347.198C676.985 347.198 657.381 362.2 614.141 365.669C614.141 365.669 588.167 344.893 630.286 321.818C630.286 321.818 667.197 322.974 682.173 309.703C682.173 309.703 676.917 298.819 664.921 285.65C648.513 267.587 627.607 254.208 604.339 246.883C588.661 242.032 572.32 239.673 555.911 239.891L454.153 236.717C454.153 236.717 444.324 249.414 420.715 248.258C397.105 247.102 350.953 249.988 350.953 249.988H350.495L255.539 245.685C252.812 245.3 250.115 244.729 247.466 243.975C233.7 240.233 207.589 228.884 212.298 197.19L62.9736 206.425C57.3455 206.684 51.7545 207.474 46.2748 208.785C38.6056 210.756 31.5925 214.354 33.5679 220.853C37.6008 234.124 26.6506 235.855 26.6506 235.855C26.6506 235.855 26.4182 237.627 26.131 240.705C24.764 255.222 22.0778 298.867 35.851 324.096Z" fill="#FF4D52"/>
<path opacity="0.05" d="M492.492 260.667C492.492 260.667 554.762 261.242 595.706 297.608H572.644C572.644 297.608 508.07 280.875 492.506 267.604L492.492 260.667Z" fill="#09093C"/>
<path d="M493.074 260.086C493.074 260.086 555.343 260.66 596.287 297.027H573.225C573.225 297.027 508.651 280.294 493.087 267.022L493.074 260.086Z" fill="#FFEC9F"/>
<path opacity="0.05" d="M603.765 247.464V262.973L656.219 287.21L664.34 286.232C647.934 268.169 627.03 254.791 603.765 247.464Z" fill="#09093C"/>
<path d="M604.346 246.889V262.398L656.807 286.628L664.928 285.65C648.519 267.589 627.613 254.213 604.346 246.889Z" fill="#FFEC9F"/>
<path opacity="0.05" d="M529.97 317.214C529.97 317.214 558.221 334.522 561.105 372.626H544.96C544.96 372.626 538.617 331.081 520.169 317.214H529.97Z" fill="#09093C"/>
<path opacity="0.05" d="M196.147 318.37L342.594 335.678C342.594 335.678 352.28 273.973 350.489 249.968L255.533 245.665C252.809 245.286 250.114 244.722 247.467 243.975V249.701L175.976 232.394C175.976 232.394 163.864 250.276 196.147 318.37Z" fill="#09093C"/>
<path d="M212.292 180.457C212.292 180.457 181.157 176.421 167.322 202.964L211.848 201.247L212.292 180.457Z" fill="#FF4D52"/>
<path opacity="0.05" d="M169.482 212.267C170.706 216.105 169.783 220.326 162.695 223.247C156.796 225.683 149.878 222.864 147.862 216.81C146.686 213.28 147.493 209.285 153.85 206.035C160.207 202.786 167.343 205.563 169.482 212.267Z" fill="#09093C"/>
<path d="M681.08 318.357C681.08 318.357 644.128 337.511 617.607 330.26" stroke="#FF4D52" stroke-miterlimit="10"/>
<path d="M679.774 328.7C679.774 328.7 655.899 347.13 607.641 342.847" stroke="#FF4D52" stroke-miterlimit="10"/>
<path d="M678.674 337.381C678.674 337.381 654.989 357.952 606.322 351.433" stroke="#FF4D52" stroke-miterlimit="10"/>
<path opacity="0.05" d="M169.106 199.865C169.106 199.865 188.368 216.509 205.949 224.034C205.949 224.034 179.25 228.788 169.106 199.865Z" fill="#09093C"/>
<path opacity="0.1" d="M373.168 248.853C373.168 248.853 281.766 257.493 247.179 249.414C247.179 249.414 245.333 250.638 256.345 245.699L373.168 248.853Z" fill="#09093C"/>
<path opacity="0.05" d="M26.1248 240.705C31.8187 236.963 40.8481 229.199 39.6178 220.559C39.0026 216.228 42.0648 212.179 46.2686 208.779C38.5993 210.749 31.5863 214.347 33.5617 220.846C37.5945 234.117 26.6442 235.848 26.6442 235.848C26.6442 235.848 26.4188 237.627 26.1248 240.705Z" fill="#09093C"/>
<path d="M485.521 300.933C485.466 298.648 485.521 296.274 485.692 294.092C485.692 293.675 485.76 293.271 485.801 292.874C484.516 293.846 483.75 294.585 483.75 294.585L484.878 235.178L491.098 204.058C491.098 181.989 502.971 175.771 502.971 175.771C502.971 175.771 509.192 172.939 510.887 168.985C512.582 165.031 527.606 156.671 527.613 156.671C527.732 155.231 527.778 153.786 527.75 152.341C527.75 151.965 527.75 151.575 527.715 151.185C523.949 148.685 521.217 144.903 520.026 140.539C518.836 136.176 519.268 131.529 521.242 127.46C520.408 127.46 519.732 127.111 519.417 125.873C518.419 121.953 519.383 116.05 521.652 112.917C522.138 112.261 522.685 111.654 523.286 111.104C523.99 110.396 524.732 109.727 525.508 109.099C527.449 107.485 529.609 105.788 532.015 105.925C533.38 106.104 534.691 106.57 535.863 107.293C541.874 110.458 547.868 113.651 553.847 116.871C556.055 118.068 558.331 119.327 559.876 121.475C561.42 123.623 562.042 126.373 562.473 129.075C562.835 130.906 562.92 132.78 562.726 134.637C562.545 136.326 561.773 137.896 560.546 139.069C560.298 139.369 560.016 139.637 559.705 139.87C558.488 140.759 556.923 140.978 555.651 141.696C554.69 144.489 553.081 147.014 550.956 149.064C550.956 149.413 551.003 149.748 551.031 150.131C551.106 151.11 551.222 152.184 551.372 153.271C551.372 153.271 555.549 153.162 561.769 161.645C567.989 170.127 581.557 171.263 581.557 171.263C581.557 171.263 586.643 168.999 592.296 194.461C597.948 219.922 599.644 236.874 596.821 239.72C595.622 240.756 594.271 241.6 592.815 242.224C588.023 244.645 582.867 246.262 577.552 247.013C577.484 247.217 577.369 247.402 577.217 247.553L576.814 252.485C576.472 262.897 576.075 283.783 578.181 288.414C581.011 294.639 577.613 298.6 577.613 298.6L576.93 298.552C576.804 298.767 576.662 298.973 576.506 299.168L573.772 298.983C573.97 310.613 574.503 326.744 575.911 330.287C578.174 335.945 575.911 367.064 575.911 367.064L579.869 423.078C579.869 423.078 582.036 452.316 580.006 455.702C581.113 461.784 583.102 473.372 582.692 476.259C582.125 480.22 569.124 485.878 569.124 485.878C569.124 485.878 553.861 489.298 546.513 488.142C542.671 487.547 541.147 484.947 541.133 482.669C536.15 483.47 529.663 484.236 525.596 483.606C518.248 482.478 519.376 473.988 523.334 474.556C527.292 475.124 531.817 467.161 535.18 463.2C536.888 461.202 538.31 457.631 539.281 454.574C538.566 454.466 537.91 454.115 537.422 453.582C535.726 450.749 532.897 424.727 532.897 424.727L525.549 379.467C525.549 379.467 521.591 357.398 518.201 352.308C515.637 348.464 512.432 319.773 511.017 305.954H510.894H510.853L510.702 305.468L508.576 298.6C507.442 300.605 504.585 301.596 501.256 302.021C501.611 303.471 501.905 304.654 502.076 305.332C502.924 308.752 490.565 314.382 487.585 311.557C486.334 310.373 485.685 306.084 485.535 301.391H485.432L485.521 300.933ZM559.794 455.223C559.985 456.325 560.176 457.474 560.368 458.644C560.798 457.276 561.14 456.044 561.373 455.134C560.812 455.155 560.286 455.182 559.794 455.223Z" fill="url(#paint2_linear_456_616)"/>
<path d="M540.839 443.43C540.839 443.43 538.658 453.24 535.371 457.05C532.083 460.86 527.749 468.488 523.942 467.948C520.135 467.407 519.041 475.575 526.122 476.663C533.204 477.751 547.9 474.481 547.9 474.481C547.9 474.481 560.422 469.008 560.962 465.218C561.502 461.428 557.695 441.788 557.695 441.788L540.839 443.43Z" fill="#53526B"/>
<path opacity="0.05" d="M540.839 443.43C540.839 443.43 538.658 453.24 535.371 457.05C532.083 460.86 527.749 468.488 523.942 467.948C520.135 467.407 519.041 475.575 526.122 476.663C533.204 477.751 547.9 474.481 547.9 474.481C547.9 474.481 560.422 469.008 560.962 465.218C561.502 461.428 557.695 441.788 557.695 441.788L540.839 443.43Z" fill="#09093C"/>
<path d="M560.983 447.787C560.983 447.787 558.802 457.597 555.514 461.408C552.226 465.218 547.893 472.846 544.086 472.305C540.278 471.765 539.185 479.933 546.266 481.021C553.347 482.108 568.043 478.845 568.043 478.845C568.043 478.845 580.566 473.372 581.106 469.583C581.646 465.793 577.838 446.152 577.838 446.152L560.983 447.787Z" fill="#53526B"/>
<path d="M511.441 298.504C511.441 298.504 515.795 345.358 519.062 350.263C522.329 355.168 526.137 376.416 526.137 376.416L533.211 419.999C533.211 419.999 535.945 445.065 537.565 447.787C539.185 450.51 559.391 449.34 559.391 449.34L546.855 305.044L511.441 298.504Z" fill="#5F5D7E"/>
<path opacity="0.05" d="M511.441 298.504C511.441 298.504 515.795 345.358 519.062 350.263C522.329 355.168 526.137 376.416 526.137 376.416L533.211 419.999C533.211 419.999 535.945 445.065 537.565 447.787C539.185 450.51 559.391 449.34 559.391 449.34L546.855 305.044L511.441 298.504Z" fill="#09093C"/>
<path d="M502.732 276.169L504.154 280.691L511.843 305.12L511.994 305.585H512.035C513.067 305.817 534.858 310.832 539.561 312.371C539.814 312.449 540.063 312.543 540.306 312.651C542.486 313.739 545.207 352.965 545.207 352.965C545.207 352.965 546.84 390.016 547.941 392.738C549.041 395.461 553.409 451.57 556.109 449.942C558.809 448.314 578.426 449.942 578.426 449.942C580.607 447.76 578.426 418.344 578.426 418.344L574.619 364.403C574.619 364.403 576.8 334.44 574.619 328.988C572.439 323.535 572.439 287.039 572.439 287.039L527.852 280.13L523.545 279.446L502.732 276.169Z" fill="#5F5D7E"/>
<path opacity="0.02" d="M504.154 280.691L511.843 305.12L512.028 305.598C513.06 305.831 534.851 310.845 539.554 312.385H540.025L527.852 280.13L527.503 279.199L523.545 279.452L504.154 280.691Z" fill="#09093C"/>
<path opacity="0.1" d="M554.996 167.206C554.996 167.206 534.852 189.001 522.33 171.017L510.354 179.192L512.535 191.724L505.46 286.526C505.46 286.526 523.97 285.979 537.032 290.336C540.67 291.628 544.601 291.852 548.363 290.983C552.124 290.114 555.559 288.188 558.263 285.431L556.082 202.075L560.983 176.469L554.996 167.206Z" fill="#09093C"/>
<path d="M554.996 165.571C554.996 165.571 534.852 187.367 522.33 169.382L510.354 177.557L512.535 190.089L505.453 284.918C505.453 284.918 523.963 284.371 537.026 288.729C540.664 290.02 544.595 290.245 548.356 289.376C552.117 288.507 555.552 286.581 558.256 283.824L556.076 200.467L560.977 174.861L554.996 165.571Z" fill="#53526B"/>
<path d="M514.789 262.63V266.058H513.689V263.773H509.69V266.058H508.589V262.637L514.789 262.63Z" fill="#E82127"/>
<path d="M513.805 261.522H509.581C509.304 261.456 509.05 261.315 508.848 261.115C508.646 260.915 508.502 260.663 508.432 260.387H514.946C514.876 260.662 514.732 260.914 514.53 261.114C514.327 261.314 514.074 261.455 513.798 261.522" fill="#E82127"/>
<path d="M552.001 260.394C551.929 260.667 551.785 260.916 551.584 261.114C551.383 261.313 551.133 261.454 550.859 261.523H549.082L548.993 261.557V266.044H547.886V261.557L547.784 261.523H546.006C545.734 261.452 545.484 261.31 545.284 261.112C545.084 260.914 544.939 260.666 544.865 260.394H552.001Z" fill="#E82127"/>
<path d="M513.074 278.344C513.074 278.344 513.074 292.512 509.807 298.504C506.54 304.497 487.49 301.241 487.49 301.241L491.297 281.08L513.074 278.344Z" fill="#D39999"/>
<path d="M489.56 311.037C492.431 313.773 504.332 308.301 503.511 305.044C502.937 302.739 500.928 294.489 499.786 289.81L498.993 286.519C498.993 286.519 492.021 284.337 489.56 286.519C488.665 287.313 488.036 290.439 487.742 294.215C487.236 300.776 487.735 309.306 489.56 311.037Z" fill="#FDC2CC"/>
<path d="M515.801 175.374L534.851 190.082C534.851 190.082 563.156 188.447 556.082 174.827C553.001 168.837 551.142 162.293 550.613 155.577C550.383 153.099 550.383 150.605 550.613 148.127C550.613 148.127 524.482 124.184 527.749 151.397C528.007 153.486 528.157 155.586 528.2 157.69C528.563 178.118 515.801 175.374 515.801 175.374Z" fill="#FDC2CC"/>
<path opacity="0.1" d="M527.776 151.404C528.034 153.492 528.184 155.593 528.228 157.697C531.16 159.641 534.601 160.674 538.118 160.666C542.992 160.666 546.58 155.919 549.82 152.765C549.458 148.243 550.634 148.134 550.634 148.134C550.634 148.134 524.509 124.156 527.776 151.404Z" fill="#09093C"/>
<path d="M538.119 159.572C528.198 159.572 520.156 151.523 520.156 141.594C520.156 131.665 528.198 123.616 538.119 123.616C548.04 123.616 556.082 131.665 556.082 141.594C556.082 151.523 548.04 159.572 538.119 159.572Z" fill="#FDC2CC"/>
<path opacity="0.1" d="M550.908 158.758C550.908 158.758 553.902 159.031 559.89 167.199C565.877 175.368 578.981 176.462 578.981 176.462C578.981 176.462 583.882 174.28 589.323 198.798C594.764 223.316 596.397 239.659 593.677 242.381C590.956 245.104 580.068 248.921 574.627 248.921C574.627 248.921 572.993 283.242 575.713 289.235C578.434 295.228 575.167 299.045 575.167 299.045L551.243 297.41C551.243 297.41 543.075 287.06 541.441 269.082C539.807 251.104 534.367 199.885 537.087 193.893C539.807 187.9 551.783 172.645 551.243 171.01C550.703 169.375 550.908 158.758 550.908 158.758Z" fill="#09093C"/>
<path d="M532.469 230.297V231.352H535.867V238.344C534.617 239.568 533.016 240.18 531.062 240.18C527.521 240.18 525.32 238.227 524.461 234.32C524.148 232.914 523.992 231.247 523.992 229.32C524.018 222.029 526.44 218.37 531.258 218.344C534.148 218.344 536.219 219.633 537.469 222.211C537.911 223.174 538.289 224.32 538.602 225.648H539.734L539.578 217.602L535.984 218.344C534.24 217.562 532.404 217.172 530.477 217.172C527.065 217.172 524.24 218.24 522 220.375C519.734 222.589 518.602 225.518 518.602 229.164C518.602 233.669 520.216 237.029 523.445 239.242C525.529 240.648 527.898 241.352 530.555 241.352C532.664 241.352 534.578 240.922 536.297 240.062L540.555 241V231.352H543.211V230.297H532.469Z" fill="#FF5950"/>
<path d="M550.955 158.593C550.955 158.593 554.981 158.484 560.969 166.659C566.957 174.834 580.019 175.922 580.019 175.922C580.019 175.922 584.92 173.739 590.361 198.257C595.802 222.775 597.436 239.118 594.702 241.82C591.967 244.522 581.092 248.36 575.651 248.36C575.651 248.36 574.018 282.681 576.738 288.674C579.459 294.667 576.191 298.484 576.191 298.484L552.268 296.849C552.268 296.849 544.1 286.498 542.466 268.52C540.832 250.543 535.391 199.324 538.112 193.332C540.832 187.339 552.808 172.084 552.268 170.449C551.728 168.814 550.955 158.593 550.955 158.593Z" fill="#D39999"/>
<path d="M565.31 228.768C565.31 228.768 538.071 197.505 541.899 218.958C544.633 234.213 554.961 242.388 559.862 244.023C564.763 245.658 565.31 228.768 565.31 228.768Z" fill="#FDC2CC"/>
<path opacity="0.1" d="M487.742 294.215C490.347 292.224 495.261 289.125 499.786 289.81L498.993 286.519C498.993 286.519 492.021 284.337 489.56 286.519C488.658 287.313 488.036 290.439 487.742 294.215Z" fill="#09093C"/>
<path opacity="0.1" d="M528.05 162.028C528.05 162.028 514.167 171.017 512.534 174.834C510.9 178.651 504.912 181.374 504.912 181.374C504.912 181.374 493.484 187.366 493.484 208.614L487.496 238.578L514.728 276.709C514.728 276.709 517.995 238.571 519.629 229.308C521.262 220.046 523.436 202.629 523.436 202.629C523.436 202.629 531.604 192.278 530.511 189.556C529.417 186.833 528.05 162.028 528.05 162.028Z" fill="#09093C"/>
<path d="M528.098 161.863C528.098 161.863 513.62 169.929 511.994 173.739C510.367 177.55 504.365 180.252 504.365 180.252C504.365 180.252 492.937 186.245 492.937 207.493L486.949 237.456L485.862 294.66C485.862 294.66 495.664 285.397 502.739 289.755C509.813 294.112 514.167 275.587 514.167 275.587C514.167 275.587 517.435 237.449 519.068 228.186C520.702 218.924 522.875 201.507 522.875 201.507C522.875 201.507 531.044 191.197 529.95 188.461C528.856 185.725 528.098 161.863 528.098 161.863Z" fill="#D39999"/>
<path opacity="0.1" d="M522.349 119.73C523.271 118.557 524.337 117.504 525.521 116.597C527.394 115.037 529.465 113.409 531.789 113.546C533.104 113.721 534.366 114.173 535.494 114.873C541.281 117.924 547.052 121.007 552.808 124.122C554.933 125.271 557.128 126.489 558.611 128.555C560.094 130.621 560.696 133.275 561.113 135.875C561.461 137.636 561.544 139.439 561.359 141.224C561.189 142.975 560.34 144.589 558.994 145.719C557.442 146.848 555.316 146.854 554.017 148.332C553.266 149.187 552.937 150.384 552.404 151.424C551.871 152.464 550.948 153.476 549.896 153.292C548.843 153.107 548.207 151.992 548.057 150.863C547.99 149.719 548.057 148.571 548.255 147.443C548.46 145.39 548.201 143.215 547.011 141.69C546.191 140.65 545.015 140.02 544.222 138.953C542.322 136.381 543.19 132.112 541.106 129.697C540.5 129.066 539.738 128.607 538.898 128.367C538.057 128.126 537.168 128.113 536.321 128.329C534.632 128.685 533.088 129.602 531.536 130.381C529.44 131.44 527.244 132.288 524.981 132.913C523.081 133.433 520.88 134.678 520.23 132.146C519.239 128.432 520.196 122.747 522.349 119.73Z" fill="#09093C"/>
<path d="M522.896 119.183C523.818 118.009 524.883 116.957 526.068 116.05C527.941 114.49 530.012 112.862 532.336 112.999C533.651 113.174 534.913 113.626 536.041 114.326C541.823 117.377 546.629 114.49 553.354 123.575C554.79 125.518 557.674 125.942 559.158 128.008C560.641 130.074 561.242 132.728 561.659 135.327C562.008 137.088 562.091 138.892 561.905 140.677C561.736 142.427 560.887 144.041 559.54 145.172C557.989 146.3 555.863 146.307 554.564 147.785C553.812 148.64 553.484 149.837 552.951 150.877C552.418 151.917 551.495 152.929 550.443 152.744C549.39 152.56 548.754 151.445 548.604 150.316C548.537 149.172 548.603 148.024 548.802 146.895C549.007 144.843 548.747 142.668 547.558 141.142C546.738 140.102 545.562 139.473 544.769 138.406C542.869 135.834 543.737 131.565 541.652 129.15C541.047 128.519 540.285 128.06 539.445 127.819C538.604 127.579 537.715 127.566 536.868 127.782C535.179 128.138 533.635 129.054 532.083 129.834C529.987 130.892 527.791 131.74 525.528 132.365C523.628 132.885 521.427 134.13 520.777 131.599C519.779 127.885 520.709 122.2 522.896 119.183Z" fill="#865A61"/>
<path d="M571.872 199.892C571.872 199.892 572.418 220.052 575.139 222.775C577.859 225.498 573.505 228.768 573.505 228.768L562.616 226.031C562.616 226.031 565.351 244.009 553.908 241.834C553.908 241.834 561.53 248.914 569.151 250.009C576.772 251.103 576.246 248.381 576.246 248.381L587.675 234.76L571.872 199.892Z" fill="#D39999"/>
<path opacity="0.1" d="M571.961 202.341C571.961 202.341 579.22 220.867 573.772 228.494L561.796 225.758C561.796 225.758 572.685 229.028 571.051 222.488C569.418 215.948 571.961 202.341 571.961 202.341Z" fill="#09093C"/>
<path opacity="0.1" d="M575.952 248.107C575.952 248.107 560.163 249.195 555.808 245.925C561.539 250.318 568.31 253.146 575.46 254.134L575.952 248.107Z" fill="#09093C"/>
<path opacity="0.1" d="M507.893 213.239C507.893 213.239 499.724 238.304 500.271 242.114C500.818 245.925 501.905 287.88 501.905 287.88L503.538 287.333L502.992 241.567L507.893 213.239Z" fill="#09093C"/>
<path d="M163.994 284.118C163.994 284.118 152.032 307.616 161.779 320.471C171.526 333.325 160.89 368.357 160.89 368.357" stroke="#6C63FF" stroke-miterlimit="10"/>
<path d="M160.453 276.805C160.453 281.334 163.775 285.014 163.775 285.014C163.775 285.014 167.097 281.34 167.097 276.805C167.097 272.269 163.775 268.596 163.775 268.596C163.775 268.596 160.453 272.276 160.453 276.805Z" fill="#FF5950"/>
<path d="M157.794 284.118C157.794 284.118 169.756 307.616 160.008 320.471C150.261 333.325 160.897 368.357 160.897 368.357" stroke="#6C63FF" stroke-miterlimit="10"/>
<path d="M161.341 276.805C161.341 281.334 158.019 285.014 158.019 285.014C158.019 285.014 154.697 281.34 154.697 276.805C154.697 272.269 158.019 268.596 158.019 268.596C158.019 268.596 161.341 272.276 161.341 276.805Z" fill="#FF5950"/>
<path opacity="0.1" d="M161.341 276.805C161.341 281.334 158.019 285.014 158.019 285.014C158.019 285.014 154.697 281.34 154.697 276.805C154.697 272.269 158.019 268.596 158.019 268.596C158.019 268.596 161.341 272.276 161.341 276.805Z" fill="#09093C"/>
<path d="M152.92 284.118C152.92 284.118 140.958 307.616 150.705 320.471C160.452 333.325 149.817 368.357 149.817 368.357" stroke="#6C63FF" stroke-miterlimit="10"/>
<path d="M149.38 276.805C149.38 281.334 152.701 285.014 152.701 285.014C152.701 285.014 156.023 281.34 156.023 276.805C156.023 272.269 152.701 268.596 152.701 268.596C152.701 268.596 149.38 272.276 149.38 276.805Z" fill="#FF5950"/>
<path d="M151.238 295.631C154.376 298.894 159.318 299.236 159.318 299.236C159.318 299.236 159.167 294.283 156.03 291.027C152.893 287.771 147.951 287.422 147.951 287.422C147.951 287.422 148.101 292.368 151.238 295.631Z" fill="#FF5950"/>
<path d="M150.931 311.844C154.068 315.107 159.01 315.449 159.01 315.449C159.01 315.449 158.86 310.497 155.722 307.24C152.585 303.984 147.67 303.628 147.67 303.628C147.67 303.628 147.793 308.574 150.931 311.844Z" fill="#FF5950"/>
<path d="M167.944 320.758C164.978 324.178 165.08 329.131 165.08 329.131C165.08 329.131 169.995 328.536 172.961 325.116C175.928 321.695 175.825 316.742 175.825 316.742C175.825 316.742 170.911 317.337 167.944 320.758Z" fill="#FF5950"/>
<path d="M165.19 286.191C161.417 288.694 160.193 293.497 160.193 293.497C160.193 293.497 165.094 294.236 168.86 291.759C172.627 289.283 173.857 284.453 173.857 284.453C173.857 284.453 168.963 283.687 165.19 286.191Z" fill="#FF5950"/>
<path opacity="0.1" d="M165.19 286.191C161.417 288.694 160.193 293.497 160.193 293.497C160.193 293.497 165.094 294.236 168.86 291.759C172.627 289.283 173.857 284.453 173.857 284.453C173.857 284.453 168.963 283.687 165.19 286.191Z" fill="#09093C"/>
<path d="M146.721 284.118C146.721 284.118 158.682 307.616 148.935 320.471C139.188 333.325 149.824 368.357 149.824 368.357" stroke="#6C63FF" stroke-miterlimit="10"/>
<path d="M150.261 276.805C150.261 281.334 146.939 285.014 146.939 285.014C146.939 285.014 143.617 281.34 143.617 276.805C143.617 272.269 146.939 268.596 146.939 268.596C146.939 268.596 150.261 272.276 150.261 276.805Z" fill="#FF5950"/>
<path opacity="0.1" d="M150.261 276.805C150.261 281.334 146.939 285.014 146.939 285.014C146.939 285.014 143.617 281.34 143.617 276.805C143.617 272.269 146.939 268.596 146.939 268.596C146.939 268.596 150.261 272.276 150.261 276.805Z" fill="#09093C"/>
<path d="M149.304 295.98C152.483 299.209 152.722 304.189 152.722 304.189C152.722 304.189 147.78 303.909 144.602 300.68C141.423 297.451 141.184 292.471 141.184 292.471C141.184 292.471 146.133 292.751 149.304 295.98Z" fill="#FF5950"/>
<path opacity="0.1" d="M149.304 295.98C152.483 299.209 152.722 304.189 152.722 304.189C152.722 304.189 147.78 303.909 144.602 300.68C141.423 297.451 141.184 292.471 141.184 292.471C141.184 292.471 146.133 292.751 149.304 295.98Z" fill="#09093C"/>
<path d="M143.077 318.439C146.256 321.668 146.495 326.648 146.495 326.648C146.495 326.648 141.553 326.367 138.375 323.139C135.196 319.91 134.957 314.929 134.957 314.929C134.957 314.929 139.899 315.196 143.077 318.439Z" fill="#FF5950"/>
<path d="M152.243 313.493C152.243 313.493 145.046 302.137 134.936 301.863" stroke="#6C63FF" stroke-miterlimit="10"/>
<path d="M157.848 306.631C157.848 306.631 165.046 295.275 175.155 295.002" stroke="#6C63FF" stroke-miterlimit="10"/>
<path d="M158.785 322.844C158.785 322.844 151.588 311.488 141.478 311.215" stroke="#6C63FF" stroke-miterlimit="10"/>
<path d="M135.271 303.669C134.241 303.669 133.405 302.833 133.405 301.802C133.405 300.77 134.241 299.934 135.271 299.934C136.302 299.934 137.137 300.77 137.137 301.802C137.137 302.833 136.302 303.669 135.271 303.669Z" fill="#FF5950"/>
<path d="M174.985 296.965C173.954 296.965 173.118 296.129 173.118 295.098C173.118 294.066 173.954 293.23 174.985 293.23C176.015 293.23 176.851 294.066 176.851 295.098C176.851 296.129 176.015 296.965 174.985 296.965Z" fill="#FF5950"/>
<path d="M153.487 326.586C153.487 326.586 160.685 315.23 170.794 314.957" stroke="#6C63FF" stroke-miterlimit="10"/>
<path d="M170.624 316.92C169.593 316.92 168.758 316.084 168.758 315.053C168.758 314.021 169.593 313.185 170.624 313.185C171.654 313.185 172.49 314.021 172.49 315.053C172.49 316.084 171.654 316.92 170.624 316.92Z" fill="#FF5950"/>
<path d="M141.341 313.178C140.31 313.178 139.475 312.342 139.475 311.311C139.475 310.279 140.31 309.443 141.341 309.443C142.372 309.443 143.207 310.279 143.207 311.311C143.207 312.342 142.372 313.178 141.341 313.178Z" fill="#FF5950"/>
<path d="M113.692 354.696C113.692 354.696 131.04 351.221 135.668 346.589C140.295 341.958 161.116 333.879 163.426 339.646C165.737 345.413 194.657 365.135 175.012 368.603C155.367 372.072 128.744 373.235 122.961 370.916C117.178 368.597 113.692 354.696 113.692 354.696Z" fill="#A8A8A8"/>
<path opacity="0.2" d="M175.012 366.455C155.347 369.931 128.744 371.087 122.961 368.768C118.559 367.003 115.497 358.506 114.287 354.593L113.706 354.716C113.706 354.716 117.178 368.61 122.961 370.922C128.744 373.235 155.347 372.079 175.012 368.61C180.685 367.605 182.312 365.251 181.697 362.276C181.198 364.212 179.223 365.71 175.012 366.455Z" fill="#09093C"/>
<path d="M622.542 412.611C622.542 412.611 616.814 420.136 625.187 431.424C633.56 442.711 640.464 452.296 637.668 459.362C637.668 459.362 625.037 438.34 614.756 438.046C604.476 437.752 611.236 425.253 622.542 412.611Z" fill="#FF5950"/>
<path opacity="0.1" d="M622.542 412.611C622.043 413.336 621.65 414.129 621.374 414.964C611.339 426.758 606.001 437.765 615.639 438.046C624.62 438.306 635.393 454.375 637.977 458.439C637.891 458.752 637.789 459.06 637.669 459.362C637.669 459.362 625.037 438.34 614.757 438.046C604.477 437.752 611.237 425.253 622.542 412.611Z" fill="#09093C"/>
<path d="M611.893 422.161C611.893 424.802 612.187 426.95 612.576 426.95C612.966 426.95 613.26 424.809 613.26 422.161C613.26 419.514 612.891 420.793 612.528 420.793C612.166 420.793 611.893 419.527 611.893 422.161Z" fill="#FFD037"/>
<path d="M608.243 425.315C610.56 426.58 612.576 427.367 612.747 427.018C612.918 426.669 611.189 425.411 608.872 424.152C606.554 422.893 607.47 423.81 607.293 424.152C607.115 424.494 605.925 424.049 608.243 425.315Z" fill="#FFD037"/>
<path d="M652.802 412.611C652.802 412.611 658.53 420.136 650.157 431.424C641.784 442.711 634.88 452.296 637.676 459.355C637.676 459.355 650.307 438.333 660.588 438.039C670.868 437.745 664.108 425.253 652.802 412.611Z" fill="#FF5950"/>
<path opacity="0.1" d="M652.802 412.611C653.301 413.336 653.695 414.129 653.971 414.964C664.005 426.758 669.344 437.765 659.706 438.046C650.724 438.306 639.952 454.375 637.368 458.439C637.453 458.752 637.556 459.06 637.676 459.362C637.676 459.362 650.307 438.34 660.588 438.046C670.868 437.752 664.108 425.253 652.802 412.611Z" fill="#09093C"/>
<path d="M663.451 422.161C663.451 424.802 663.157 426.95 662.768 426.95C662.378 426.95 662.084 424.809 662.084 422.161C662.084 419.514 662.453 420.793 662.815 420.793C663.178 420.793 663.451 419.527 663.451 422.161Z" fill="#FFD037"/>
<path d="M667.102 425.315C664.785 426.58 662.768 427.367 662.597 427.018C662.427 426.669 664.156 425.411 666.473 424.152C668.79 422.893 667.874 423.81 668.052 424.152C668.23 424.494 669.419 424.049 667.102 425.315Z" fill="#FFD037"/>
<path d="M661.626 458.37C661.626 458.37 645.611 457.878 640.785 454.437C635.959 450.996 616.178 446.912 614.954 452.384C613.731 457.857 590.887 479.823 608.967 479.967C627.046 480.111 650.977 477.149 655.795 474.214C660.614 471.279 661.626 458.37 661.626 458.37Z" fill="#A8A8A8"/>
<path opacity="0.2" d="M608.638 478.072C626.718 478.216 650.648 475.254 655.467 472.319C659.138 470.082 660.601 462.058 661.086 458.357H661.619C661.619 458.357 660.608 471.286 655.789 474.221C650.97 477.155 627.039 480.124 608.96 479.974C603.738 479.933 601.94 478.072 602.036 475.322C602.767 477.005 604.756 478.038 608.638 478.072Z" fill="#09093C"/>
</g>
<circle cx="640.5" cy="570.5" r="33.5" fill="#FF9890"/>
<circle cx="807" cy="325" r="20" fill="url(#paint3_linear_456_616)"/>
<defs>
<linearGradient id="paint0_linear_456_616" x1="353.66" y1="408.37" x2="353.66" y2="165.804" gradientUnits="userSpaceOnUse">
<stop stop-color="#808080" stop-opacity="0.25"/>
<stop offset="0.54" stop-color="#808080" stop-opacity="0.12"/>
<stop offset="1" stop-color="#808080" stop-opacity="0.1"/>
</linearGradient>
<linearGradient id="paint1_linear_456_616" x1="301.501" y1="346.862" x2="254.624" y2="172.907" gradientUnits="userSpaceOnUse">
<stop stop-color="#808080" stop-opacity="0.25"/>
<stop offset="0.54" stop-color="#808080" stop-opacity="0.12"/>
<stop offset="1" stop-color="#808080" stop-opacity="0.1"/>
</linearGradient>
<linearGradient id="paint2_linear_456_616" x1="540.942" y1="488.327" x2="540.942" y2="105.911" gradientUnits="userSpaceOnUse">
<stop stop-color="#808080" stop-opacity="0.25"/>
<stop offset="0.54" stop-color="#808080" stop-opacity="0.12"/>
<stop offset="1" stop-color="#808080" stop-opacity="0.1"/>
</linearGradient>
<linearGradient id="paint3_linear_456_616" x1="842.074" y1="317.932" x2="800.076" y2="263.454" gradientUnits="userSpaceOnUse">
<stop/>
<stop offset="1" stop-color="#D8D8D8"/>
</linearGradient>
<clipPath id="clip0_456_616">
<rect width="700" height="537" fill="white" transform="matrix(-1 0 0 1 700 0)"/>
</clipPath>
</defs>
</svg>
