<svg width="83" height="45" viewBox="0 0 83 45" fill="none" xmlns="http://www.w3.org/2000/svg">
<path d="M8.42 44.24C7.31333 44.24 6.29333 44.0667 5.36 43.72C4.44 43.36 3.63333 42.8533 2.94 42.2C2.26 41.5467 1.72667 40.78 1.34 39.9C0.966667 39.02 0.78 38.0533 0.78 37C0.78 35.9467 0.966667 34.98 1.34 34.1C1.72667 33.22 2.26667 32.4533 2.96 31.8C3.65333 31.1467 4.46667 30.6467 5.4 30.3C6.33333 29.94 7.36 29.76 8.48 29.76C9.72 29.76 10.8333 29.9667 11.82 30.38C12.82 30.7933 13.66 31.3933 14.34 32.18L12.26 34.1C11.7533 33.5667 11.2 33.1733 10.6 32.92C10 32.6533 9.34667 32.52 8.64 32.52C7.96 32.52 7.34 32.6267 6.78 32.84C6.22 33.0533 5.73333 33.36 5.32 33.76C4.92 34.16 4.60667 34.6333 4.38 35.18C4.16667 35.7267 4.06 36.3333 4.06 37C4.06 37.6533 4.16667 38.2533 4.38 38.8C4.60667 39.3467 4.92 39.8267 5.32 40.24C5.73333 40.64 6.21333 40.9467 6.76 41.16C7.32 41.3733 7.93333 41.48 8.6 41.48C9.24 41.48 9.86 41.38 10.46 41.18C11.0733 40.9667 11.6667 40.6133 12.24 40.12L14.08 42.46C13.32 43.0333 12.4333 43.4733 11.42 43.78C10.42 44.0867 9.42 44.24 8.42 44.24ZM11.12 42.04V36.78H14.08V42.46L11.12 42.04ZM18.6897 29.94C18.5697 30.4067 18.4164 30.9133 18.2297 31.46C18.043 32.0067 17.8364 32.5533 17.6097 33.1C17.3964 33.6333 17.183 34.14 16.9697 34.62H15.6697C15.763 34.2467 15.8564 33.8467 15.9497 33.42C16.0564 32.9933 16.1497 32.5667 16.2297 32.14C16.323 31.7 16.403 31.2733 16.4697 30.86C16.5497 30.4467 16.6164 30.0667 16.6697 29.72H18.5497L18.6897 29.94ZM20.5858 44V30H23.2658L31.5258 40.08H30.2258V30H33.4258V44H30.7658L22.4858 33.92H23.7858V44H20.5858ZM39.7181 35.64H46.4581V38.16H39.7181V35.64ZM39.9581 41.4H47.5781V44H36.7381V30H47.3181V32.6H39.9581V41.4ZM54.7561 44.24C53.6361 44.24 52.5628 44.0933 51.5361 43.8C50.5094 43.4933 49.6828 43.1 49.0561 42.62L50.1561 40.18C50.7561 40.6067 51.4628 40.96 52.2761 41.24C53.1028 41.5067 53.9361 41.64 54.7761 41.64C55.4161 41.64 55.9294 41.58 56.3161 41.46C56.7161 41.3267 57.0094 41.1467 57.1961 40.92C57.3828 40.6933 57.4761 40.4333 57.4761 40.14C57.4761 39.7667 57.3294 39.4733 57.0361 39.26C56.7428 39.0333 56.3561 38.8533 55.8761 38.72C55.3961 38.5733 54.8628 38.44 54.2761 38.32C53.7028 38.1867 53.1228 38.0267 52.5361 37.84C51.9628 37.6533 51.4361 37.4133 50.9561 37.12C50.4761 36.8267 50.0828 36.44 49.7761 35.96C49.4828 35.48 49.3361 34.8667 49.3361 34.12C49.3361 33.32 49.5494 32.5933 49.9761 31.94C50.4161 31.2733 51.0694 30.7467 51.9361 30.36C52.8161 29.96 53.9161 29.76 55.2361 29.76C56.1161 29.76 56.9828 29.8667 57.8361 30.08C58.6894 30.28 59.4428 30.5867 60.0961 31L59.0961 33.46C58.4428 33.0867 57.7894 32.8133 57.1361 32.64C56.4828 32.4533 55.8428 32.36 55.2161 32.36C54.5894 32.36 54.0761 32.4333 53.6761 32.58C53.2761 32.7267 52.9894 32.92 52.8161 33.16C52.6428 33.3867 52.5561 33.6533 52.5561 33.96C52.5561 34.32 52.7028 34.6133 52.9961 34.84C53.2894 35.0533 53.6761 35.2267 54.1561 35.36C54.6361 35.4933 55.1628 35.6267 55.7361 35.76C56.3228 35.8933 56.9028 36.0467 57.4761 36.22C58.0628 36.3933 58.5961 36.6267 59.0761 36.92C59.5561 37.2133 59.9428 37.6 60.2361 38.08C60.5428 38.56 60.6961 39.1667 60.6961 39.9C60.6961 40.6867 60.4761 41.4067 60.0361 42.06C59.5961 42.7133 58.9361 43.24 58.0561 43.64C57.1894 44.04 56.0894 44.24 54.7561 44.24ZM62.91 44V30H66.15V44H62.91ZM74.0725 44.24C72.9525 44.24 71.8792 44.0933 70.8525 43.8C69.8258 43.4933 68.9992 43.1 68.3725 42.62L69.4725 40.18C70.0725 40.6067 70.7792 40.96 71.5925 41.24C72.4192 41.5067 73.2525 41.64 74.0925 41.64C74.7325 41.64 75.2458 41.58 75.6325 41.46C76.0325 41.3267 76.3258 41.1467 76.5125 40.92C76.6992 40.6933 76.7925 40.4333 76.7925 40.14C76.7925 39.7667 76.6458 39.4733 76.3525 39.26C76.0592 39.0333 75.6725 38.8533 75.1925 38.72C74.7125 38.5733 74.1792 38.44 73.5925 38.32C73.0192 38.1867 72.4392 38.0267 71.8525 37.84C71.2792 37.6533 70.7525 37.4133 70.2725 37.12C69.7925 36.8267 69.3992 36.44 69.0925 35.96C68.7992 35.48 68.6525 34.8667 68.6525 34.12C68.6525 33.32 68.8658 32.5933 69.2925 31.94C69.7325 31.2733 70.3858 30.7467 71.2525 30.36C72.1325 29.96 73.2325 29.76 74.5525 29.76C75.4325 29.76 76.2992 29.8667 77.1525 30.08C78.0058 30.28 78.7592 30.5867 79.4125 31L78.4125 33.46C77.7592 33.0867 77.1058 32.8133 76.4525 32.64C75.7992 32.4533 75.1592 32.36 74.5325 32.36C73.9058 32.36 73.3925 32.4333 72.9925 32.58C72.5925 32.7267 72.3058 32.92 72.1325 33.16C71.9592 33.3867 71.8725 33.6533 71.8725 33.96C71.8725 34.32 72.0192 34.6133 72.3125 34.84C72.6058 35.0533 72.9925 35.2267 73.4725 35.36C73.9525 35.4933 74.4792 35.6267 75.0525 35.76C75.6392 35.8933 76.2192 36.0467 76.7925 36.22C77.3792 36.3933 77.9125 36.6267 78.3925 36.92C78.8725 37.2133 79.2592 37.6 79.5525 38.08C79.8592 38.56 80.0125 39.1667 80.0125 39.9C80.0125 40.6867 79.7925 41.4067 79.3525 42.06C78.9125 42.7133 78.2525 43.24 77.3725 43.64C76.5058 44.04 75.4058 44.24 74.0725 44.24Z" fill="black"/>
<path d="M39.5023 0C34.2542 0 30 4.20582 30 9.3999C30 14.594 39.5023 27 39.5023 27C39.5023 27 49 14.594 49 9.3999C49 4.20582 44.7504 0 39.5023 0ZM39.5023 15.6236C36.0284 15.6236 33.2139 12.8381 33.2139 9.3999C33.2139 5.9617 36.0284 3.1762 39.5023 3.1762C42.9763 3.1762 45.7908 5.9617 45.7908 9.3999C45.7908 12.8381 42.9763 15.6236 39.5023 15.6236Z" fill="black"/>
</svg>
