<svg width="438" height="251" viewBox="0 0 438 251" fill="none" xmlns="http://www.w3.org/2000/svg">
<path d="M58.8089 176.833C58.8089 177.336 59.1347 177.809 59.7566 178.253C63.34 180.943 76.9035 182.953 93.1027 182.953C97.6338 182.953 101.957 182.806 105.926 182.51C118.512 181.593 127.396 179.406 127.396 176.833C127.396 174.261 118.542 172.074 106.015 171.157C102.017 170.861 97.6634 170.714 93.1027 170.714C74.179 170.714 58.8089 173.463 58.8089 176.833Z" fill="#E5EAF2"/>
<path d="M91.0315 92.3378C94.3187 94.2595 95.9179 93.7864 96.6583 92.5152C97.4282 91.2143 97.0432 89.6178 93.756 87.6961C87.7739 84.1779 83.5094 84.8283 83.5094 84.8283C83.5094 84.8283 84.9605 88.7604 91.0315 92.3378Z" fill="#FF5950"/>
<path d="M91.2077 116.995C93.6953 119.892 95.3537 119.951 96.4791 118.976C97.6044 118 97.7821 116.344 95.2945 113.477C90.7634 108.214 86.5286 107.445 86.5286 107.445C86.5286 107.445 86.6174 111.673 91.2077 116.995Z" fill="#FF5950"/>
<path d="M92.7191 181.209L93.4298 181.15C93.4298 181.032 92.5118 169.886 96.2728 153.566C99.7377 138.488 108 115.812 127.635 93.2839L127.102 92.8109C107.349 115.457 99.0566 138.281 95.5621 153.418C91.801 169.886 92.7191 181.12 92.7191 181.209Z" fill="#C6D3ED"/>
<path d="M107.764 121.252L108.386 120.868C94.2595 98.842 102.759 72.0565 102.848 71.7904L102.167 71.5539C102.048 71.8495 93.4302 98.9307 107.764 121.252Z" fill="#C6D3ED"/>
<path d="M118.632 109.574C125.976 109.574 131.514 105.908 131.573 105.878L131.159 105.287C131.099 105.346 123.992 110.017 115.315 108.598L115.196 109.308C116.381 109.485 117.506 109.574 118.632 109.574Z" fill="#C6D3ED"/>
<path d="M93.9327 164.978C108.77 163.293 120.764 156.079 129.648 143.514C129.944 143.071 130.24 142.657 130.329 142.598C130.329 142.598 130.299 142.627 130.24 142.627L130.003 141.947C129.796 142.006 129.678 142.184 129.026 143.1C120.29 155.488 108.444 162.583 93.8142 164.239L93.9327 164.978Z" fill="#C6D3ED"/>
<path d="M114.901 157.232L115.611 157.055C113.065 147.624 119.343 133.728 119.432 133.58L118.78 133.285C118.751 133.314 117.151 136.862 115.848 141.563C114.664 145.909 113.538 152.147 114.901 157.232Z" fill="#C6D3ED"/>
<path d="M128.137 89.2926C124.317 92.7221 123.991 94.6438 124.998 95.7673C126.005 96.8611 127.96 96.7429 131.78 93.3134C138.739 87.0457 140.279 82.0197 140.279 82.0197C140.279 82.0197 135.186 82.9362 128.137 89.2926Z" fill="#FF5950"/>
<path d="M129.619 103.513C124.94 105.642 124.051 107.386 124.673 108.746C125.295 110.106 127.19 110.579 131.87 108.451C140.399 104.578 143.39 100.232 143.39 100.232C143.39 100.232 138.266 99.5812 129.619 103.513Z" fill="#FF5950"/>
<path d="M117.269 131.215C115.522 134.586 116.085 136.153 117.417 136.833C118.75 137.513 120.349 137.069 122.097 133.669C125.265 127.49 124.407 123.292 124.407 123.292C124.407 123.292 120.497 124.977 117.269 131.215Z" fill="#C6D3ED"/>
<path d="M111.228 98.0734C110.369 101.769 111.287 103.158 112.738 103.513C114.189 103.868 115.64 103.04 116.499 99.3151C118.098 92.5743 116.203 88.6718 116.203 88.6718C116.203 88.6718 112.857 91.2439 111.228 98.0734Z" fill="#FF5950"/>
<path d="M105.364 153.418C105.572 157.232 106.845 158.296 108.326 158.208C109.807 158.119 110.961 156.936 110.754 153.123C110.369 146.205 107.497 143.012 107.497 143.012C107.497 143.012 104.979 146.382 105.364 153.418Z" fill="#C6D3ED"/>
<path d="M126.391 142.893C123.963 145.82 124.17 147.476 125.325 148.422C126.48 149.368 128.139 149.279 130.567 146.352C135.009 141.001 135.068 136.714 135.068 136.714C135.068 136.714 130.893 137.453 126.391 142.893Z" fill="#C6D3ED"/>
<path d="M100.626 68.6566C99.4415 73.653 100.241 75.4269 101.692 75.7521C103.143 76.1069 104.683 74.8947 105.868 69.8983C108.06 60.7924 106.46 55.7664 106.46 55.7664C106.46 55.7664 102.847 59.4324 100.626 68.6566Z" fill="#FF5950"/>
<path d="M92.2148 182.185C92.2148 182.185 111.02 112.117 129.885 117.941C148.749 123.735 106.874 162.11 102.047 182.658L92.2148 182.185Z" fill="#FF5B50"/>
<path d="M94.9685 179.021C94.9685 179.021 123.754 122.789 141.7 131.186C159.647 139.582 112.441 164.564 104.682 181.209L94.9685 179.021Z" fill="#FF5B50"/>
<path d="M100.507 180.352C110.339 158.208 136.281 138.902 136.548 138.695L136.074 138.045C135.807 138.252 109.687 157.676 99.7664 179.997L100.507 180.352Z" fill="white"/>
<path d="M35.4431 130.654C35.6208 131.038 35.7689 131.452 35.9466 131.836C37.1312 134.467 38.7007 137.04 40.4184 139.257C42.373 141.74 42.758 144.46 42.6099 147.21C42.6099 147.298 42.6099 147.358 42.6099 147.446C42.3434 151.526 40.9515 155.606 41.7214 159.065C41.7807 159.302 41.8399 159.538 41.9287 159.804C42.5506 161.696 43.9129 163.382 46.6671 164.742C55.8772 169.235 57.358 168.881 58.1872 172.813C58.2464 173.049 58.276 173.286 58.3352 173.552C58.4537 174.291 58.5722 175.178 58.7498 176.272C58.7498 176.272 58.5721 177.484 59.7567 178.253C62.9551 180.647 74.0606 182.51 87.861 182.865C88.1275 182.865 88.3644 182.865 88.631 182.894C90.1117 182.924 91.5925 182.953 93.1324 182.953C97.6634 182.953 101.987 182.806 105.956 182.51C106.933 179.967 107.88 175.828 106.044 171.187C105.363 169.472 104.327 167.728 102.787 165.954C94.5243 156.552 87.8906 158.208 89.4602 141.533C89.4898 141.356 89.4898 141.149 89.5194 140.972C89.549 140.824 89.549 140.646 89.5787 140.499C91.5036 122.73 67.4565 130.417 61.4152 124.415C55.4034 118.414 51.3166 111.673 40.4776 114.334C32.8074 116.137 32.5705 123.469 35.4431 130.654Z" fill="#FF5B50"/>
<path d="M37.1609 116.344C46.223 124.268 53.7451 131.925 59.9642 139.05C60.1715 139.286 60.3788 139.523 60.5565 139.73C69.6778 150.225 75.9561 159.538 80.191 166.87C80.3094 167.077 80.4279 167.284 80.5464 167.491C85.1367 175.503 87.2097 181.002 87.8316 182.865C88.0981 182.865 88.335 182.865 88.6016 182.894C87.7427 180.293 83.0932 167.609 69.7666 149.959C69.6186 149.752 69.4705 149.575 69.3224 149.368C61.7707 139.434 51.4944 127.963 37.6347 115.812L37.1609 116.344Z" fill="white"/>
<path d="M75.3349 144.963C85.1965 144.608 89.5499 141.415 89.7275 141.297L89.2833 140.706C89.2537 140.735 84.9004 143.899 75.2756 144.224L75.3349 144.963Z" fill="white"/>
<path d="M69.3532 150.137C73.2623 148.688 76.4904 144.549 78.6522 138.193C80.2811 133.433 80.7549 129.028 80.7549 128.998L80.0441 128.909C80.0145 129.087 78.1192 146.116 69.1163 149.457L69.3532 150.137Z" fill="white"/>
<path d="M58.9286 139.789C60.0539 139.789 60.735 139.73 60.7646 139.73L60.7054 139.02C60.5574 139.02 46.52 140.321 35.533 130.565L35.0591 131.097C43.9139 138.932 54.6937 139.789 58.9286 139.789Z" fill="white"/>
<path d="M42.6985 147.949C47.6738 147.239 50.813 144.992 52.5603 143.219C54.4556 141.297 55.196 139.582 55.2256 139.493L54.5444 139.227C54.5148 139.286 51.7014 145.909 42.6097 147.239L42.6985 147.949Z" fill="white"/>
<path d="M62.305 173.877C73.0551 173.877 80.8438 167.284 80.9326 167.195L80.4588 166.663C80.3699 166.752 70.7156 174.912 58.1589 172.813L58.0405 173.522C59.4916 173.759 60.9131 173.877 62.305 173.877Z" fill="white"/>
<path d="M72.966 171.453L73.5879 171.068C71.4556 167.639 66.4508 163.027 54.8122 160.573C47.8824 159.095 41.7818 159.095 41.7225 159.095V159.804C41.9298 159.804 65.7696 159.952 72.966 171.453Z" fill="white"/>
<g opacity="0.5">
<path d="M209.98 251C94.0112 251 -0.000366211 241.988 -0.000366211 230.87C-0.000366211 219.753 94.0112 210.74 209.98 210.74C325.949 210.74 419.961 219.753 419.961 230.87C419.961 241.988 325.949 251 209.98 251Z" fill="#ECEFF5"/>
</g>
<path d="M328.603 162.053C328.603 162.053 355.109 45.5386 391.949 52.6046C428.79 59.6705 353.865 127.462 347.409 161.58L328.603 162.053Z" fill="#FF5B50"/>
<path d="M339.146 161.875C343.174 138.224 355.671 114.128 365.415 98.0749C375.987 80.6613 385.76 68.7172 385.849 68.5989L385.108 67.9781C385.019 68.0963 375.217 80.0996 364.585 97.5723C354.783 113.715 342.226 137.928 338.199 161.698L339.146 161.875Z" fill="white"/>
<path d="M420.422 137.1C406.326 149.547 422.614 172.312 401.824 178.047C381.005 183.783 381.864 181.772 377.54 194.633C377.54 194.633 379.258 205.454 371.884 209.563C348.696 222.424 345.112 199.245 317.837 194.13C310.197 192.711 302.941 191.056 296.367 189.341C295.508 184.758 295.271 177.456 299.831 170.213C301.49 167.552 303.829 164.891 306.998 162.408C324.234 148.867 334.984 154.248 337.383 123.678C339.782 93.1082 377.896 113.656 389.919 105.437C401.972 97.2176 411.005 87.1657 428.389 95.0299C445.743 102.864 434.519 124.654 420.422 137.1Z" fill="#FF5B50"/>
<path d="M326.218 195.845L325.123 195.283C325.36 194.81 350.651 146.058 432.742 97.5133L433.364 98.5776C351.598 146.945 326.485 195.372 326.218 195.845Z" fill="white"/>
<path d="M359.95 134.765C343.425 131.04 337.117 124.299 336.851 124.033L337.769 123.205C337.828 123.264 344.136 129.946 360.246 133.582L359.95 134.765Z" fill="white"/>
<path d="M368.389 145.349C362.259 141.653 358.143 133.671 356.514 122.259C355.3 113.715 355.892 106.176 355.892 106.087L357.136 106.176C357.106 106.471 354.944 135.77 369.041 144.255L368.389 145.349Z" fill="white"/>
<path d="M389.239 131.187C387.314 130.833 386.219 130.507 386.16 130.507L386.515 129.325C386.752 129.384 410.029 135.977 431.618 122.998L432.27 124.062C414.856 134.528 396.377 132.547 389.239 131.187Z" fill="white"/>
<path d="M414.027 150.079C405.883 147.3 401.322 142.54 398.923 139.022C396.317 135.179 395.666 132.045 395.636 131.927L396.85 131.69C396.88 131.808 399.516 143.871 414.441 148.956L414.027 150.079Z" fill="white"/>
<path d="M291.347 46.7508C293.657 48.1995 294.812 47.9038 295.375 46.9873C295.938 46.0708 295.73 44.9178 293.42 43.4691C289.215 40.8379 286.165 41.1926 286.165 41.1926C286.165 41.1926 287.112 44.0604 291.347 46.7508Z" fill="#FF5950"/>
<path d="M297.596 68.9833C299.521 69.4859 300.261 69.0129 300.468 68.2738C300.676 67.5051 300.261 66.766 298.307 66.2634C294.782 65.3469 292.739 66.293 292.739 66.293C292.739 66.293 294.012 68.0668 297.596 68.9833Z" fill="#FF5950"/>
<path d="M290.548 110.315L291.051 110.285C291.051 110.196 290.637 102.214 293.687 90.6247C296.501 79.9223 302.927 63.8983 317.468 48.2586L317.083 47.9038C302.453 63.6322 295.997 79.7449 293.184 90.5064C290.163 102.184 290.548 110.226 290.548 110.315Z" fill="#C6D3ED"/>
<path d="M302.659 67.8008L303.104 67.5348C293.508 51.4812 300.201 32.5303 300.261 32.3529L299.787 32.1755C299.698 32.3529 292.916 51.5107 302.659 67.8008Z" fill="#C6D3ED"/>
<path d="M310.686 59.6705C315.928 59.8479 319.955 57.3349 320.015 57.3053L319.748 56.8619C319.689 56.8914 314.506 60.0844 308.346 58.8723L308.258 59.3749C309.087 59.5818 309.886 59.6705 310.686 59.6705Z" fill="#C6D3ED"/>
<path d="M291.791 98.7254C302.422 97.868 311.188 92.9603 317.792 84.2091C318.029 83.9135 318.237 83.6179 318.296 83.5587C318.296 83.5587 318.266 83.5883 318.237 83.5883L318.089 83.0857C317.941 83.1153 317.852 83.2631 317.378 83.8839C310.833 92.5168 302.215 97.3358 291.732 98.1932L291.791 98.7254Z" fill="#C6D3ED"/>
<path d="M306.955 93.6698L307.458 93.5515C305.829 86.7517 310.657 76.9658 310.716 76.8771L310.242 76.6406C310.242 76.6701 308.998 79.1536 307.962 82.4943C307.014 85.5691 306.096 90.0037 306.955 93.6698Z" fill="#C6D3ED"/>
<path d="M317.94 45.4204C315.127 47.7856 314.861 49.1455 315.542 49.9733C316.223 50.8011 317.615 50.742 320.428 48.3768C325.551 44.0604 326.766 40.4831 326.766 40.4831C326.766 40.4831 323.123 41.0153 317.94 45.4204Z" fill="#FF5950"/>
<path d="M318.682 55.6202C315.276 57.0393 314.624 58.2515 315.039 59.2271C315.454 60.2027 316.786 60.5871 320.192 59.168C326.381 56.5959 328.603 53.5507 328.603 53.5507C328.603 53.5507 324.96 52.989 318.682 55.6202Z" fill="#FF5950"/>
<path d="M309.235 75.1328C307.902 77.498 308.287 78.651 309.205 79.1536C310.123 79.6562 311.278 79.3901 312.611 76.9954C315.039 72.6494 314.506 69.6338 314.506 69.6338C314.506 69.6338 311.663 70.7277 309.235 75.1328Z" fill="#FF5950"/>
<path d="M305.681 51.3038C304.97 53.935 305.592 54.9402 306.629 55.2063C307.665 55.4724 308.702 54.9107 309.413 52.309C310.686 47.5195 309.442 44.7109 309.442 44.7109C309.442 44.7109 306.984 46.4552 305.681 51.3038Z" fill="#FF5950"/>
<path d="M300.202 90.7133C300.261 93.4333 301.149 94.2315 302.215 94.202C303.282 94.1724 304.14 93.3446 304.081 90.6246C303.963 85.6578 301.978 83.3221 301.978 83.3221C301.978 83.3221 300.083 85.6873 300.202 90.7133Z" fill="#FF5950"/>
<path d="M315.484 83.677C313.677 85.7169 313.796 86.8995 314.595 87.6091C315.395 88.3186 316.58 88.2891 318.386 86.2491C321.673 82.5239 321.821 79.4492 321.821 79.4492C321.821 79.4492 318.83 79.8927 315.484 83.677Z" fill="#FF5950"/>
<path d="M298.751 30.0468C297.773 33.5945 298.336 34.8658 299.373 35.1615C300.409 35.4571 301.535 34.6293 302.512 31.0815C304.289 24.6365 303.252 21 303.252 21C303.252 21 300.528 23.513 298.751 30.0468Z" fill="#FF5950"/>
<path d="M291.764 238.182C291.852 238.122 294.074 236.644 294.399 234.782C294.518 234.102 294.37 233.451 293.925 232.86C293.6 232.417 293.155 232.18 292.652 232.18C291.023 232.21 289.009 234.604 288.151 235.698C288.269 234.575 288.328 232.417 287.321 231.559C286.848 231.145 286.196 231.086 285.367 231.352C284.538 231.618 283.975 232.15 283.679 232.89C282.82 234.93 284.301 237.945 284.36 238.093L284.686 237.945C284.686 237.916 283.235 234.93 284.034 233.037C284.301 232.417 284.804 231.973 285.515 231.707C286.196 231.47 286.729 231.53 287.114 231.855C288.328 232.89 287.736 236.319 287.706 236.349L287.558 237.147L288.032 236.467C288.062 236.437 290.786 232.535 292.682 232.535C293.096 232.535 293.392 232.712 293.659 233.067C294.044 233.57 294.162 234.131 294.074 234.723C293.777 236.408 291.616 237.856 291.586 237.886L291.764 238.182Z" fill="#E5EAF2"/>
<path d="M437.97 246.371C438 246.016 437.911 245.721 437.674 245.484C437.141 244.952 436.045 244.804 435.157 244.774C436.223 244.39 437.645 243.769 437.941 242.941C438.059 242.616 438 242.291 437.763 241.995C436.46 240.251 432.107 243.06 431.899 243.178L432.107 243.474C433.291 242.705 436.549 240.961 437.467 242.202C437.615 242.409 437.645 242.616 437.585 242.823C437.26 243.769 434.713 244.568 433.765 244.804L433.824 245.159C433.854 245.159 436.578 244.893 437.408 245.721C437.585 245.898 437.645 246.075 437.615 246.312L437.97 246.371Z" fill="#E5EAF2"/>
<path d="M325.524 237.295L325.879 237.265C325.849 237.029 325.909 236.822 326.086 236.674C326.768 235.994 328.9 236.023 329.67 236.112L329.729 235.757C328.781 235.521 326.264 234.723 325.909 233.777C325.849 233.57 325.879 233.363 326.027 233.156C326.945 231.914 330.203 233.658 331.387 234.427L331.595 234.131C331.417 234.013 327.034 231.175 325.731 232.949C325.494 233.244 325.435 233.57 325.553 233.895C325.849 234.693 327.241 235.343 328.337 235.728C327.449 235.757 326.323 235.905 325.82 236.437C325.583 236.644 325.494 236.94 325.524 237.295Z" fill="#E5EAF2"/>
<path d="M151.389 166.031C152.131 167.782 159.203 169.399 169.691 170.824C171.548 171.076 173.494 171.329 175.544 171.566C211.272 175.766 309.096 178.111 315.127 176.879C323.461 175.172 340.04 91.4581 340.04 91.4581C340.04 91.4581 291.21 90.6122 252.437 90.1966C239.17 90.0631 193.029 89.7069 184.472 89.7069C171.236 89.7069 150.2 163.211 151.389 166.031Z" fill="#F2F7FC"/>
<path d="M164.909 155.286C164.909 155.286 179.899 97.9284 180.983 93.1053C181.458 90.9535 182.944 90.1818 184.444 89.974C181.815 89.7218 179.899 89.7069 179.899 89.7069C174.714 89.7069 170.109 93.1944 168.445 98.3737C164.82 109.682 157.6 131.393 150.826 152.615C151.168 152.615 164.909 155.286 164.909 155.286Z" fill="#ECEFF5"/>
<path d="M74.051 206.381C76.4427 220.777 92.0708 229.933 108.1 229.933H139.861L137.395 146.813C137.395 146.813 107.075 136.944 99.4689 145.625C92.7988 153.238 74.7195 183.379 73.7687 201.202C73.6796 202.998 73.7836 204.719 74.051 206.381Z" fill="#ECEFF5"/>
<path d="M158.357 154.945C158.357 154.945 115.514 134.406 107.403 147.822C103.095 154.945 91.2398 183.364 90.3633 201.202C89.5165 218.536 105.501 229.933 121.946 229.933H151.152L158.357 154.945Z" fill="#FA847D"/>
<path d="M101.905 215.627C102.38 216.013 102.87 216.384 103.36 216.74C109.555 221.296 117.622 224.917 126.847 227.173C133.829 228.865 141.465 229.785 149.457 229.71H163.347H163.54L229.277 229.725L266.95 229.74H267.5V229.725L268.807 222.899L280.736 154.01C280.736 154.01 115.631 150.3 102.202 157.958C95.9623 161.504 92.4266 176.241 90.4657 192.461C89.4407 201.083 93.8528 209.186 101.905 215.627Z" fill="#F2F7FC"/>
<path opacity="0.5" d="M101.906 215.627C102.381 216.013 102.871 216.384 103.361 216.74C109.556 221.296 117.623 224.917 126.848 227.173C133.83 228.865 141.466 229.785 149.458 229.71H163.348H163.542L229.278 229.725L266.951 229.74L267.516 229.725L268.823 222.899C245.723 218.447 213.768 213.906 180.432 214.262C148.597 214.588 121.931 214.544 101.906 215.627Z" fill="#FA847D"/>
<path d="M193.104 90.9239C193.431 90.82 193.891 90.5529 194.292 90.3154H185.602C185.602 90.3154 188.944 88.4307 191.113 87.4661C193.282 86.5015 198.601 87.4661 198.601 87.4661C198.601 87.4661 218.269 84.5425 229.307 84.8097C232.263 84.8839 253.314 81.4558 259.375 82.6727C262.569 83.3108 265.466 83.8154 267.323 84.127C268.467 84.3051 269.521 83.4889 269.61 82.3462V82.3313C269.952 78.3541 270.457 76.1281 270.457 76.1281L277.855 72.5516C279.385 73.3678 280.812 74.1246 281.569 74.5253C281.539 74.9409 281.51 75.3416 281.495 75.7274C281.421 77.7605 281.643 79.571 282 81.159C282.668 84.0825 284.941 86.3827 287.853 87.1544L287.883 87.1693C282.342 91.9479 254.101 100.258 253.626 97.8246C252.987 94.5449 198.601 90.3154 198.601 90.3154C198.601 90.3154 197.085 90.8942 196.714 91.4284C196.343 91.9627 193.297 91.8885 192.733 91.9775C192.153 92.0517 192.436 91.1316 193.104 90.9239Z" fill="#FFB8B8"/>
<path d="M173.806 211.531C173.806 211.531 168.072 221.86 165.531 223.032C163.511 223.952 158.044 224.872 155.014 227.217C151.478 229.933 157.599 229.785 158.936 229.785C158.936 229.785 165.769 228.968 169.008 229.043C170.879 229.087 176.435 229.785 176.435 229.785C180.818 229.785 184.16 225.807 183.328 221.504C183.314 221.459 183.314 221.429 183.299 221.385C182.511 217.393 181.887 212.243 181.887 212.243L173.806 211.531Z" fill="#283252"/>
<path d="M245.291 88.772C245.41 91.4581 246.167 94.4114 248.559 95.9547C252.347 98.4034 251.382 104.8 251.367 107.322L267.56 84.1567C267.56 84.1567 263.073 83.014 257.695 82.4204C254.427 82.0642 245.826 83.0437 245.826 83.0437C245.826 83.0437 245.142 85.7446 245.291 88.772Z" fill="#FA847D"/>
<path d="M198.852 215.568C198.852 215.568 193.133 221.86 190.593 223.017C188.78 223.848 183.893 224.338 180.981 226.445C177.906 228.672 180.268 229.77 182.051 229.77C182.051 229.77 190.221 230.423 195.421 228.954C196.832 228.553 200.724 229.354 202.106 229.651C202.522 229.74 205.196 229.963 205.626 229.903C208.805 229.503 208.939 226.46 208.642 223.195C208.583 222.587 208.508 221.979 208.39 221.37C207.602 217.378 207.112 213.668 207.112 213.668L198.852 215.568Z" fill="#283252"/>
<path d="M170.685 212.985C170.685 212.985 172.75 214.424 174.562 215.033C177.415 215.982 182.748 215.537 182.748 215.537C182.748 215.537 196.355 189.166 199.223 182.503C201.941 176.181 204.229 162.32 204.229 162.32C206.309 162.201 221.848 164.412 235.5 162.928C242.764 162.142 248.915 160.346 250.994 156.68C256.996 146.129 237.832 134.346 237.832 134.346C237.832 134.346 200.352 141.098 192.122 147.064C184.308 152.748 170.685 212.985 170.685 212.985Z" fill="#FF5950"/>
<path d="M196.817 215.256C196.817 215.256 199.728 216.785 201.615 217.096C205.047 217.675 208.731 216.532 208.731 216.532C208.731 216.532 210.826 203.903 219.397 183.691C221.551 178.615 221.224 168.227 221.507 168.093C221.507 168.093 268.391 168.494 273.828 157.972C274.705 156.266 275.7 151.457 275.581 149.899C275.017 141.589 264.202 138.368 264.202 138.368C264.202 138.368 215.327 147.005 206.948 152.763C198.57 158.521 196.817 215.256 196.817 215.256Z" fill="#FF5950"/>
<path d="M233.881 133.827C236.733 138.903 239.689 142.924 250.594 144.809C264.335 147.183 271.852 150.092 275.67 151.235C278.581 152.11 286.945 141.47 290.927 131.957C294.789 122.756 298.072 108.421 298.102 107.308C298.443 90.2264 285.445 86.1305 285.445 86.0859C285.445 86.0859 275.789 92.6453 270.53 90.3599C265.345 88.1191 267.484 84.2457 267.544 84.1418L253.609 97.8098C253.609 97.8098 250.475 109.801 246.686 118.512C240.967 131.705 233.108 132.432 233.881 133.827Z" fill="#FA847D"/>
<path d="M270.441 76.1281C270.441 76.1281 269.951 78.3541 269.595 82.3313C275.878 82.1236 280.855 75.6235 280.885 75.208C280.127 74.8073 279.37 73.3678 277.839 72.5516L270.441 76.1281Z" fill="#F0A3A3"/>
<path d="M268.97 80.12C268.97 80.12 282.192 79.749 281.82 71.5275C281.464 63.306 282.92 57.726 274.467 57.6222C266.014 57.5183 264.514 60.7238 263.964 63.4989C263.429 66.2592 265.524 80.0013 268.97 80.12Z" fill="#FFB8B8"/>
<path d="M281.123 74.8518C281.123 74.8518 281.643 72.1212 280.172 70.3107C280.172 70.3107 281.137 67.6394 280.112 67.031C279.087 66.4225 278.538 68.708 278.092 68.2776C277.646 67.8472 275.656 65.8141 275.047 63.128C274.438 60.4567 265.272 62.3266 264.187 62.6531C264.009 62.7125 263.771 62.6976 263.504 62.6234C261.201 62.0298 260.518 59.0618 262.301 57.4887C262.405 57.3996 262.509 57.2958 262.598 57.2067C263.563 56.2273 270.323 49.653 278.033 52.8437C285.743 56.0343 286.322 60.0115 285.416 63.217C284.495 66.4225 284.554 74.1989 281.123 74.8518Z" fill="#283252"/>
<path d="M294.834 95.5689C294.834 95.5689 297.107 100.08 294.983 108.332C290.793 124.597 273.977 137.819 271.54 136.587C269.119 135.371 262.731 135.549 266.177 128.158C269.624 120.753 283.588 93.4764 283.588 93.4764L294.834 95.5689Z" fill="#FFB8B8"/>
<path d="M274.393 111.448C278.79 113.897 282.029 115.87 288.773 115.841C293.854 115.826 298.028 114.846 298.028 114.846C298.028 114.846 303.243 93.6693 293.498 89.3063C290.14 87.8074 285.431 86.0859 285.431 86.0859C285.431 86.0859 266.505 107.055 274.393 111.448Z" fill="#FA847D"/>
<path d="M239.795 129.969C239.795 129.969 263.297 127.461 266.461 127.579C269.61 127.698 272.819 136.172 272.373 136.617C271.928 137.062 262.465 137.522 256.626 137.107C250.209 136.662 242.023 134.584 242.023 134.584L239.795 129.969Z" fill="#FFB8B8"/>
<path d="M234.922 206.827C237.492 220.777 251.635 229.621 266.119 229.621H295.311L293.023 145.759C293.023 145.759 265.154 136.617 258.157 145.314C252.021 152.927 235.398 183.067 234.521 200.891C234.432 202.968 234.566 204.942 234.922 206.827Z" fill="#ECEFF5"/>
<path d="M331.706 229.933C339.03 229.888 346.904 228.315 352.861 223.848C358.655 219.5 362.086 212.896 364.181 206.099C368.638 191.586 368.519 175.677 368.028 160.644C367.509 144.379 366.038 128.099 364.151 111.938C363.527 106.595 363.349 99.6945 360.586 94.8862C358.417 91.1316 350.306 89.885 346.399 89.9741C343.145 90.0631 339.996 92.8679 337.248 94.4707C335.406 95.554 333.563 96.6374 331.721 97.7207C329.924 98.7744 329.864 100.615 329.24 102.573C323.982 119.017 318.812 135.489 313.494 151.918C307.239 149.291 300.881 146.931 294.33 145.135C288.18 143.459 281.138 141.811 274.75 143.147C268.11 144.527 266.089 150.923 263.668 156.503C260.459 163.894 257.681 171.477 255.393 179.209C253.165 186.718 250.937 194.865 251.115 202.775C251.278 209.899 254.546 216.503 259.835 221.222C266.579 227.262 275.448 229.918 284.332 229.918C300.123 229.933 315.915 229.933 331.706 229.933Z" fill="#FA847D"/>
<path d="M327.041 155.286C327.041 155.286 342.03 97.9284 343.115 93.1053C343.59 90.9535 345.076 90.1818 346.576 89.974C343.947 89.7218 342.03 89.7069 342.03 89.7069C336.846 89.7069 332.241 93.1944 330.577 98.3737C326.952 109.682 320.267 130.518 313.493 151.754C313.82 151.739 327.041 155.286 327.041 155.286Z" fill="#ECEFF5"/>
<path d="M239.626 138.168H273.388C273.388 136.688 272.187 135.472 270.689 135.472H239.626V138.168Z" fill="#283252"/>
<path d="M186.763 101.45L199.284 138.168H251.802L238.952 101.45H186.763Z" fill="#283252"/>
<path d="M214.896 119.463C215.225 120.861 216.624 122.011 218.022 122.011C219.421 122.011 220.309 120.877 219.98 119.463C219.651 118.066 218.253 116.916 216.854 116.916C215.456 116.932 214.567 118.066 214.896 119.463Z" fill="#61A9FF"/>
<path d="M164.955 24.3865H211.35C215.049 24.3865 218.079 27.4131 218.079 31.1083V51.4409C218.079 54.8389 215.291 57.6056 211.908 57.6056H210.718L212.948 67.0385L198.896 57.6056H164.546C160.847 57.6056 157.836 54.5789 157.836 50.9024V31.4982C157.836 27.5803 161.033 24.3865 164.955 24.3865Z" fill="#FF5950"/>
<path d="M165.513 42.3794H207.8C208.376 42.3794 208.859 41.8966 208.859 41.321V41.2839C208.859 40.7082 208.376 40.2255 207.8 40.2255H165.513C164.936 40.2255 164.453 40.7082 164.453 41.2839V41.321C164.453 41.8966 164.936 42.3794 165.513 42.3794Z" fill="#F9F9F9"/>
<path d="M165.178 47.2073H184.082C184.472 47.2073 184.807 46.8916 184.807 46.4831V45.759C184.807 45.369 184.491 45.0348 184.082 45.0348H165.178C164.788 45.0348 164.453 45.3505 164.453 45.759V46.4831C164.453 46.8916 164.788 47.2073 165.178 47.2073Z" fill="#F9F9F9"/>
<path d="M187.484 47.2072H203.952C204.324 47.2072 204.621 46.9101 204.621 46.5388V45.7218C204.621 45.3504 204.324 45.0533 203.952 45.0533H187.484C187.112 45.0533 186.814 45.3504 186.814 45.7218V46.5388C186.814 46.9101 187.112 47.2072 187.484 47.2072Z" fill="#F9F9F9"/>
<path d="M178.338 33.6708H193.505C194.082 33.6708 194.565 33.188 194.565 32.6124C194.565 32.0367 194.082 31.554 193.505 31.554H178.338C177.762 31.554 177.278 32.0367 177.278 32.6124C177.278 33.188 177.743 33.6708 178.338 33.6708Z" fill="#F9F9F9"/>
<path d="M165.29 33.6708H174.416C174.881 33.6708 175.253 33.2994 175.253 32.8352V32.3895C175.253 31.9253 174.881 31.554 174.416 31.554H165.29C164.825 31.554 164.453 31.9253 164.453 32.3895V32.8352C164.453 33.2994 164.825 33.6708 165.29 33.6708Z" fill="#F9F9F9"/>
</svg>
