<svg width="409" height="295" viewBox="0 0 409 295" fill="none" xmlns="http://www.w3.org/2000/svg">
<g clip-path="url(#clip0_236_1259)">
<path d="M82.4948 181.111C81.7881 181.143 81.0885 180.958 80.4907 180.58C79.893 180.202 79.4261 179.65 79.1532 178.998C78.8802 178.346 78.8146 177.626 78.965 176.935C79.1154 176.245 79.4747 175.617 79.9942 175.137C80.0812 174.792 80.1436 174.544 80.2306 174.199C80.1995 174.123 80.1682 174.048 80.1367 173.973C76.9602 166.407 66.1948 166.459 63.0454 174.037C60.25 180.762 56.691 187.498 55.8147 194.609C55.4288 197.752 55.5916 200.938 56.2959 204.026C49.7304 189.72 46.321 174.171 46.2991 158.433C46.2977 154.484 46.5174 150.537 46.957 146.613C47.3204 143.395 47.8245 140.201 48.4694 137.029C51.9884 119.82 59.5438 103.69 70.5152 89.9646C75.8254 87.0705 80.1198 82.6199 82.8197 77.2127C83.7978 75.269 84.4891 73.194 84.8721 71.0525C84.2731 71.131 83.6643 71.18 83.0653 71.2192C82.8787 71.229 82.6823 71.2388 82.4957 71.2487L82.4253 71.2518C81.767 71.2813 81.1141 71.1201 80.5453 70.7876C79.9766 70.4551 79.5162 69.9655 79.2195 69.3777C78.9229 68.7898 78.8027 68.1289 78.8733 67.4744C78.944 66.82 79.2025 66.1998 79.6178 65.6887C79.8764 65.3708 80.1352 65.053 80.3942 64.7353C80.787 64.2449 81.1896 63.7642 81.5824 63.2738C81.6277 63.2272 81.6704 63.1781 81.7101 63.1266C82.1619 62.5675 82.6135 62.0182 83.0653 61.459C82.2407 60.1806 81.1317 59.1098 79.8246 58.33C75.2976 55.6815 69.0521 57.5158 65.782 61.6062C62.5021 65.6966 61.8835 71.4351 63.0225 76.5456C63.9948 80.9205 66.1159 84.9325 68.5022 88.7482C68.2566 89.0621 68.0013 89.3662 67.7558 89.6801C63.268 95.4445 59.3566 101.634 56.0776 108.161C57.0053 100.922 55.6357 92.2018 53.3008 86.5804C50.6428 80.1755 45.6609 74.7813 41.2738 69.2442C36.0041 62.5934 25.1981 65.496 24.2697 73.927C24.2607 74.0086 24.2519 74.0902 24.2434 74.1718C24.895 74.539 25.5329 74.9288 26.157 75.341C26.941 75.8643 27.5486 76.612 27.9 77.486C28.2514 78.3601 28.3302 79.3198 28.1263 80.2394C27.9223 81.159 27.445 81.9956 26.7569 82.6396C26.0688 83.2836 25.202 83.705 24.2701 83.8485L24.1746 83.8633C24.4068 86.2092 24.8171 88.5342 25.4021 90.818C27.0972 97.1937 30.0926 103.151 34.2006 108.316C38.3085 113.481 43.4404 117.743 49.2745 120.834C49.6575 121.03 50.0307 121.226 50.4137 121.413C47.1193 130.739 45.0529 140.453 44.2664 150.311C43.8211 156.127 43.8474 161.969 44.3449 167.781C44.3351 167.712 44.3253 167.644 44.3155 167.575C43.0584 161.112 39.6072 155.281 34.5445 151.066C27.0253 144.896 16.4019 142.624 8.28998 137.664C4.38511 135.277 -0.618691 138.362 0.0628149 142.884C0.0737015 142.957 0.084757 143.029 0.0959883 143.101C1.30524 143.593 2.48264 144.16 3.62134 144.798C4.27298 145.165 4.91085 145.555 5.53496 145.967C6.319 146.491 6.92652 147.238 7.27792 148.112C7.62931 148.986 7.7082 149.946 7.50423 150.866C7.30027 151.785 6.82298 152.622 6.13488 153.266C5.44679 153.91 4.57998 154.331 3.64805 154.475L3.55254 154.489C3.48382 154.499 3.42488 154.509 3.35624 154.519C5.42241 159.447 8.32235 163.983 11.929 167.928C16.3845 172.704 21.7696 176.52 27.754 179.143C33.7385 181.766 40.1962 183.14 46.7312 183.181H46.741C48.515 190.882 51.0853 198.377 54.4105 205.546H81.8083C81.9065 205.242 81.9949 204.928 82.0833 204.624C79.5473 204.783 77.0013 204.632 74.5022 204.173C76.5349 201.681 78.5676 199.17 80.6004 196.679C80.6458 196.632 80.6884 196.583 80.7281 196.532C81.7592 195.256 82.8001 193.991 83.8312 192.716L83.8317 192.714C83.8867 188.806 83.4377 184.906 82.4957 181.112L82.4948 181.111Z" fill="#F2F2F2"/>
<path d="M408.352 206.587L0.785814 206.754C0.613921 206.754 0.449071 206.686 0.327524 206.564C0.205978 206.443 0.137695 206.278 0.137695 206.107C0.137695 205.935 0.205978 205.77 0.327524 205.649C0.449071 205.527 0.613921 205.459 0.785814 205.459L408.352 205.292C408.524 205.292 408.689 205.36 408.811 205.482C408.932 205.603 409 205.768 409 205.94C409 206.111 408.932 206.276 408.811 206.397C408.689 206.519 408.524 206.587 408.352 206.587Z" fill="#CACACA"/>
<path d="M345.546 206.177C326.988 206.961 316.495 206.391 302.967 194.661C293.756 194.416 286.435 187.763 286.646 179.829C286.857 171.896 294.523 165.64 303.733 165.885L337.175 167.469C346.385 167.713 363.514 167.148 363.303 175.081C363.199 178.976 363.197 184.028 362.836 189.319C362.538 193.763 360.609 197.94 357.418 201.051C354.228 204.162 350 205.987 345.546 206.177Z" fill="#2F2E41"/>
<path d="M285.939 280.441L276.357 282.005L265.759 245.832L279.9 243.523L285.939 280.441Z" fill="#FFB6B6"/>
<path d="M282.131 205.013C299.995 209.401 313.187 204.46 324.052 205.1C330.228 194.69 349.943 181.467 339.186 175.902C333.195 172.802 272.299 165.657 264.304 173.903C243.747 195.109 269.271 262.078 269.271 262.078L283.466 261.895L288.002 255.428L284.348 248.381L287.804 242.619L283.849 236.683L282.131 205.013Z" fill="#2F2E41"/>
<path d="M292.529 287.669L286.252 289.348L283.544 283.727L282.261 290.415L265.612 294.868C264.814 295.081 263.969 295.034 263.199 294.734C262.43 294.433 261.776 293.895 261.335 293.198C260.893 292.5 260.687 291.68 260.745 290.857C260.803 290.033 261.123 289.25 261.659 288.622L272.496 275.893L270.891 269.908L285.099 267.002L292.529 287.669Z" fill="#2F2E41"/>
<path d="M364.46 268.651L357.467 275.379L328.161 251.639L338.482 241.709L364.46 268.651Z" fill="#FFB6B6"/>
<path d="M308.089 193.854C324.465 200.155 338.787 193.148 352.937 185.026C352.094 172.954 351.623 155.548 339.605 157.078C332.913 157.93 277.601 167.06 275.718 178.384C270.875 207.503 340.297 263.009 340.297 263.009L351.872 254.797L351.923 246.902L344.906 243.178L344.47 236.476L337.838 233.838L308.089 193.854Z" fill="#2F2E41"/>
<path d="M373.996 270.855L369.787 275.801L364.361 272.714L367.112 278.945L355.949 292.063C355.414 292.692 354.692 293.133 353.888 293.323C353.084 293.513 352.24 293.441 351.48 293.118C350.719 292.794 350.082 292.237 349.662 291.527C349.241 290.816 349.059 289.99 349.142 289.169L350.813 272.544L346.087 268.531L356.121 258.072L373.996 270.855Z" fill="#2F2E41"/>
<path d="M299.454 169.837C298.301 169.837 297.645 169.611 297.392 169.127C297.019 168.416 294.642 167.487 295.39 166.41C295.912 165.661 297.171 164.656 296.686 164.078C294.819 161.851 290.156 97.9588 289.058 89.2424C288.788 86.5446 289.154 83.8211 290.127 81.2899C293.204 72.5793 297.406 69.9022 305.775 64.5698C306.454 64.1368 307.162 63.6846 307.897 63.2132C308.849 62.6025 308.796 64.0288 308.74 61.8844C308.677 59.5012 308.613 57.0365 309.782 55.4961L309.858 55.3956L309.98 55.3671C312.807 54.7143 322.316 53.5023 327.947 55.3759L328.025 55.4024L328.083 55.4601C329.421 56.7963 329.543 59.3845 329.661 61.8872C329.757 63.942 329.848 62.4308 330.605 63.2736C333.498 66.4946 337.857 68.3557 341.492 69.4115C343.771 70.0654 345.766 71.46 347.162 73.3746C348.558 75.2891 349.275 77.6142 349.198 79.9814C348.804 91.9056 349.114 110.761 347.077 124.048C343.685 146.162 374.645 178.099 356.912 178.755C356.957 178.824 356.983 178.905 356.985 178.988C356.988 179.07 356.967 179.152 356.927 179.224C355.661 181.587 303.802 169.837 299.454 169.837Z" fill="#E6E6E6"/>
<path d="M317.401 53.592C329.075 53.592 338.538 44.1389 338.538 32.4779C338.538 20.8169 329.075 11.3638 317.401 11.3638C305.727 11.3638 296.264 20.8169 296.264 32.4779C296.264 44.1389 305.727 53.592 317.401 53.592Z" fill="#2F2E41"/>
<path d="M319.102 55.3347C327.488 55.0974 334.094 48.1142 333.857 39.7374C333.619 31.3606 326.628 24.7622 318.242 24.9996C309.856 25.2369 303.25 32.2201 303.488 40.5969C303.725 48.9737 310.716 55.5721 319.102 55.3347Z" fill="#FFB6B6"/>
<path d="M318.819 17.0264L312.662 17.2007C308.781 17.3137 305.104 18.9599 302.437 21.7782C299.77 24.5964 298.332 28.3564 298.437 32.2329L298.441 32.3691L298.553 32.4394C301.9 34.6514 305.851 35.7742 309.862 35.6534L310.208 35.6437L313.611 35.4897C314.183 34.0176 314.374 32.4251 314.167 30.8596C314.681 32.3436 315.082 33.8642 315.367 35.4085L330.634 34.7142C331.522 34.6703 332.358 34.2813 332.963 33.6304C333.568 32.9795 333.895 32.118 333.873 31.2299C333.759 27.3536 332.109 23.6811 329.287 21.0182C326.465 18.3553 322.7 16.9197 318.819 17.0264Z" fill="#2F2E41"/>
<path d="M306.549 13.219C305.159 14.9311 302.927 15.6444 300.922 16.5716C297.384 18.2429 294.308 20.7511 291.96 23.8785C289.611 27.006 288.062 30.6584 287.447 34.519C286.974 37.6628 287.14 40.8987 286.34 43.9731C285.545 47.0473 283.448 50.1008 280.332 50.7186C278.223 51.1401 276.075 50.3828 274.059 49.6324C272.95 49.2233 271.842 48.8125 270.733 48.3999C271.795 45.5016 272.855 42.6033 273.914 39.7051C272.159 42.4617 270.099 45.0124 267.773 47.3091C263.799 45.838 259.822 44.367 255.842 42.8961C265.525 42.6587 263.607 33.3166 265.506 23.8349C266.55 18.6247 276.589 14.8326 278.437 9.85128C279.436 7.14958 281.188 4.79014 283.487 3.05221C285.786 1.31428 288.535 0.270617 291.409 0.0447331C294.284 -0.181151 297.162 0.420209 299.705 1.77763C302.248 3.13505 304.348 5.19171 305.757 7.7042C307.767 8.43909 307.913 11.5287 306.549 13.219Z" fill="#2F2E41"/>
<path d="M307.516 19.4983C311.863 19.4983 315.387 15.9783 315.387 11.6361C315.387 7.29396 311.863 3.77393 307.516 3.77393C303.169 3.77393 299.646 7.29396 299.646 11.6361C299.646 15.9783 303.169 19.4983 307.516 19.4983Z" fill="#2F2E41"/>
<path d="M335.476 132.942H299.139C297.894 132.94 296.701 132.446 295.821 131.567C294.942 130.688 294.447 129.497 294.445 128.254V89.238C294.447 87.9951 294.942 86.8034 295.821 85.9245C296.701 85.0457 297.894 84.5513 299.139 84.5499H335.476C336.72 84.5513 337.913 85.0457 338.793 85.9245C339.673 86.8034 340.168 87.9951 340.169 89.238V128.254C340.168 129.497 339.673 130.688 338.793 131.567C337.913 132.446 336.72 132.94 335.476 132.942Z" fill="#3F3D56"/>
<path d="M300.16 92.9777C301.663 92.9777 302.882 91.7605 302.882 90.2591C302.882 88.7576 301.663 87.5404 300.16 87.5404C298.657 87.5404 297.438 88.7576 297.438 90.2591C297.438 91.7605 298.657 92.9777 300.16 92.9777Z" fill="#E6E6E6"/>
<path d="M300.16 91.8903C301.062 91.8903 301.793 91.16 301.793 90.2591C301.793 89.3582 301.062 88.6279 300.16 88.6279C299.258 88.6279 298.527 89.3582 298.527 90.2591C298.527 91.16 299.258 91.8903 300.16 91.8903Z" fill="#3F3D56"/>
<path d="M311.574 131.047L286.615 124.725L282.735 137.553C282.735 137.553 309.587 139.539 310.591 139.548C311.342 140.61 312.397 141.418 313.617 141.867C314.838 142.316 316.166 142.384 317.426 142.062C318.686 141.741 319.819 141.045 320.675 140.066C321.53 139.088 322.068 137.873 322.217 136.582C322.366 135.292 322.12 133.986 321.51 132.839C320.9 131.691 319.956 130.756 318.803 130.156C317.649 129.556 316.34 129.32 315.05 129.479C313.759 129.638 312.547 130.185 311.574 131.047V131.047Z" fill="#FFB6B6"/>
<path d="M294.917 72.875C277.121 82.3742 269.322 103.551 258.404 122.161C258.178 124.194 258.38 126.252 258.996 128.203C259.612 130.154 260.629 131.955 261.982 133.491C263.334 135.028 264.993 136.265 266.851 137.124C268.71 137.984 270.728 138.446 272.775 138.482L294.135 138.974L291.458 125.809L284.313 121.754L292.758 101.348L294.917 72.875Z" fill="#E6E6E6"/>
<path d="M321.298 93.4419L338.333 114.091L331.298 125.225C331.298 125.225 314.17 98.4771 313.783 97.5517C312.517 97.2566 311.37 96.5844 310.494 95.6239C309.618 94.6635 309.055 93.4601 308.879 92.1729C308.702 90.8858 308.922 89.5755 309.507 88.4155C310.093 87.2554 311.017 86.3003 312.158 85.6763C313.298 85.0524 314.602 84.7892 315.896 84.9214C317.19 85.0536 318.413 85.575 319.403 86.4167C320.394 87.2584 321.106 88.3807 321.444 89.6351C321.782 90.8896 321.731 92.217 321.298 93.4419V93.4419Z" fill="#FFB6B6"/>
<path d="M346.973 73.4035C352.115 70.5653 367.112 114.337 351.331 139.232C349.53 140.206 347.545 140.794 345.504 140.958C343.462 141.122 341.409 140.86 339.475 140.186C337.541 139.513 335.77 138.444 334.273 137.047C332.776 135.651 331.588 133.958 330.783 132.076L322.614 112.104L335.703 107.936L341.954 115.101L341.085 100.846L348.524 80.5859L346.973 73.4035Z" fill="#E6E6E6"/>
<path d="M176.583 51.6181C190.101 51.6181 201.06 40.6716 201.06 27.1684C201.06 13.6651 190.101 2.71863 176.583 2.71863C163.065 2.71863 152.106 13.6651 152.106 27.1684C152.106 40.6716 163.065 51.6181 176.583 51.6181Z" fill="#FF5950"/>
<path d="M187.524 22.8413H165.642C164.723 22.8413 163.843 23.2057 163.193 23.8545C162.544 24.5032 162.179 25.3831 162.179 26.3005V48.1588C162.179 49.0762 162.544 49.9561 163.193 50.6048C163.843 51.2536 164.723 51.618 165.642 51.618H187.524C188.443 51.618 189.323 51.2536 189.973 50.6048C190.622 49.9561 190.987 49.0762 190.987 48.1588V26.3005C190.987 25.3831 190.622 24.5032 189.973 23.8545C189.323 23.2058 188.443 22.8413 187.524 22.8413ZM176.583 44.9035C175.064 44.9035 173.578 44.4534 172.315 43.6102C171.052 42.767 170.067 41.5685 169.485 40.1663C168.904 38.7641 168.752 37.2212 169.048 35.7326C169.345 34.244 170.076 32.8767 171.151 31.8035C172.225 30.7303 173.594 29.9994 175.084 29.7033C176.574 29.4072 178.119 29.5592 179.523 30.14C180.927 30.7208 182.126 31.7044 182.971 32.9663C183.815 34.2283 184.265 35.7119 184.265 37.2297C184.265 39.2649 183.456 41.2168 182.015 42.6559C180.574 44.095 178.62 44.9035 176.583 44.9035ZM185.226 29.5559C184.846 29.5559 184.474 29.4434 184.158 29.2326C183.843 29.0218 183.597 28.7221 183.451 28.3716C183.306 28.021 183.268 27.6353 183.342 27.2632C183.416 26.891 183.599 26.5492 183.867 26.2809C184.136 26.0126 184.478 25.8299 184.851 25.7558C185.223 25.6818 185.61 25.7198 185.96 25.865C186.311 26.0102 186.611 26.2561 186.822 26.5716C187.033 26.8871 187.146 27.258 187.146 27.6374C187.146 28.1462 186.944 28.6342 186.584 28.994C186.223 29.3538 185.735 29.5559 185.226 29.5559Z" fill="white"/>
<path d="M184.236 191.654C197.755 191.654 208.713 180.708 208.713 167.205C208.713 153.701 197.755 142.755 184.236 142.755C170.718 142.755 159.76 153.701 159.76 167.205C159.76 180.708 170.718 191.654 184.236 191.654Z" fill="#FF5950"/>
<path d="M177.938 191.654C173.914 191.657 169.976 190.491 166.603 188.298L164.905 187.196L166.917 187.419C167.444 187.477 168.012 187.512 168.604 187.52C171.316 187.522 173.972 186.743 176.251 185.275C174.897 184.982 173.642 184.34 172.612 183.414C171.581 182.488 170.811 181.309 170.377 179.994L170.125 179.219L170.926 179.376C171.29 179.447 171.659 179.489 172.03 179.5C170.76 178.847 169.695 177.859 168.95 176.642C168.205 175.426 167.809 174.028 167.806 172.602V171.781L168.522 172.097C168.946 172.336 169.396 172.527 169.863 172.667C168.759 171.429 168.073 169.876 167.904 168.228C167.734 166.579 168.088 164.919 168.917 163.483L169.266 162.88L169.705 163.421C172.902 167.373 177.482 169.963 182.519 170.667C182.657 170.686 182.798 170.676 182.932 170.636C183.065 170.596 183.189 170.528 183.294 170.436C183.401 170.343 183.487 170.228 183.545 170.099C183.604 169.97 183.635 169.83 183.634 169.688C183.623 168.155 184.068 166.653 184.914 165.373C185.76 164.094 186.969 163.095 188.385 162.505C189.802 161.914 191.362 161.758 192.868 162.056C194.374 162.355 195.756 163.094 196.839 164.181C198.322 163.857 199.743 163.3 201.049 162.529L202.151 161.877L201.75 163.092C201.377 164.219 200.753 165.247 199.924 166.097C200.659 165.905 201.379 165.656 202.075 165.351L203.568 164.695L202.669 166.054C201.715 167.496 200.524 168.767 199.146 169.811V170.505C199.146 180.901 191.23 191.654 177.981 191.654H177.938Z" fill="white"/>
<path d="M127.046 121.636C140.564 121.636 151.523 110.69 151.523 97.1865C151.523 83.6833 140.564 72.7368 127.046 72.7368C113.528 72.7368 102.569 83.6833 102.569 97.1865C102.569 110.69 113.528 121.636 127.046 121.636Z" fill="#FF5950"/>
<path d="M137.987 92.8595H116.105C115.186 92.8595 114.305 93.2239 113.656 93.8727C113.006 94.5214 112.642 95.4013 112.642 96.3187V118.177C112.642 119.094 113.006 119.974 113.656 120.623C114.305 121.272 115.186 121.636 116.105 121.636H137.987C138.905 121.636 139.786 121.272 140.436 120.623C141.085 119.974 141.45 119.094 141.45 118.177V96.3187C141.45 95.4013 141.085 94.5214 140.436 93.8727C139.786 93.2239 138.905 92.8595 137.987 92.8595ZM133.878 100.239H131.369C129.655 100.239 129.322 101.049 129.322 102.246V104.783H133.408L132.877 108.766H129.314V119.153C127.791 119.439 126.227 119.435 124.705 119.142V108.766H121.437V104.783H124.766V101.837C124.766 98.3155 127.214 96.3921 130.368 96.3921C131.884 96.3921 133.507 96.5058 133.878 96.5587L133.878 100.239Z" fill="white"/>
</g>
<defs>
<clipPath id="clip0_236_1259">
<rect width="409" height="295" fill="white"/>
</clipPath>
</defs>
</svg>
