<svg width="143" height="79" viewBox="0 0 143 79" fill="none" xmlns="http://www.w3.org/2000/svg">
<circle cx="142.5" cy="32.5" r="30.5" fill="#FF9890"/>
<path d="M1 7L7.43495 11.2689C12.9343 14.9172 20.2363 14.2213 24.9475 9.5999L25.6675 8.89364C30.7029 3.95434 38.8202 4.00803 43.8556 8.94733V8.94733C48.7242 13.723 56.536 13.89 61.5446 9.26149V9.26149C66.5454 4.64026 74.2899 4.74715 79.1612 9.50462L79.4695 9.80568C84.3996 14.6206 92.272 14.62 97.2022 9.80511V9.80511C102.185 4.93866 110.217 5.05569 115.126 9.99688V9.99688C120.024 14.9279 128.058 14.9854 132.957 10.0544V10.0544C137.891 5.08709 145.94 5.12907 150.822 10.1476L153 12.386" stroke="black"/>
<path d="M1 22L7.43495 26.2689C12.9343 29.9172 20.2363 29.2213 24.9475 24.5999L25.6675 23.8936C30.7029 18.9543 38.8202 19.008 43.8556 23.9473V23.9473C48.7242 28.723 56.536 28.89 61.5446 24.2615V24.2615C66.5454 19.6403 74.2899 19.7472 79.1612 24.5046L79.4695 24.8057C84.3996 29.6206 92.272 29.62 97.2022 24.8051V24.8051C102.185 19.9387 110.217 20.0557 115.126 24.9969V24.9969C120.024 29.9279 128.058 29.9854 132.957 25.0544V25.0544C137.891 20.0871 145.94 20.1291 150.822 25.1476L153 27.386" stroke="black"/>
<path d="M1 37L7.43495 41.2689C12.9343 44.9172 20.2363 44.2213 24.9475 39.5999L25.6675 38.8936C30.7029 33.9543 38.8202 34.008 43.8556 38.9473V38.9473C48.7242 43.723 56.536 43.89 61.5446 39.2615V39.2615C66.5454 34.6403 74.2899 34.7472 79.1612 39.5046L79.4695 39.8057C84.3996 44.6206 92.272 44.62 97.2022 39.8051V39.8051C102.185 34.9387 110.217 35.0557 115.126 39.9969V39.9969C120.024 44.9279 128.058 44.9854 132.957 40.0544V40.0544C137.891 35.0871 145.94 35.1291 150.822 40.1476L153 42.386" stroke="black"/>
<path d="M1 52L7.43495 56.2689C12.9343 59.9172 20.2363 59.2213 24.9475 54.5999L25.6675 53.8936C30.7029 48.9543 38.8202 49.008 43.8556 53.9473V53.9473C48.7242 58.723 56.536 58.89 61.5446 54.2615V54.2615C66.5454 49.6403 74.2899 49.7472 79.1612 54.5046L79.4695 54.8057C84.3996 59.6206 92.272 59.62 97.2022 54.8051V54.8051C102.185 49.9387 110.217 50.0557 115.126 54.9969V54.9969C120.024 59.9279 128.058 59.9854 132.957 55.0544V55.0544C137.891 50.0871 145.94 50.1291 150.822 55.1476L153 57.386" stroke="black"/>
<path d="M1 67L7.43495 71.2689C12.9343 74.9172 20.2363 74.2213 24.9475 69.5999L25.6675 68.8936C30.7029 63.9543 38.8202 64.008 43.8556 68.9473V68.9473C48.7242 73.723 56.536 73.89 61.5446 69.2615V69.2615C66.5454 64.6403 74.2899 64.7472 79.1612 69.5046L79.4695 69.8057C84.3996 74.6206 92.272 74.62 97.2022 69.8051V69.8051C102.185 64.9387 110.217 65.0557 115.126 69.9969V69.9969C120.024 74.9279 128.058 74.9854 132.957 70.0544V70.0544C137.891 65.0871 145.94 65.1291 150.822 70.1476L153 72.386" stroke="black"/>
</svg>
